<svg width="90" height="90" viewBox="0 0 90 90" fill="none" xmlns="http://www.w3.org/2000/svg">
<path fill-rule="evenodd" clip-rule="evenodd" d="M85.8845 34.1633H81.7429C80.986 31.5911 79.9605 29.1089 78.681 26.7493L81.6191 23.8088C82.4 23.0312 82.83 21.9968 82.83 20.8951C82.83 19.794 82.4 18.7593 81.6227 17.9851L72.0653 8.42797C70.4607 6.82399 67.8498 6.82429 66.2452 8.42827L63.3166 11.3572C60.9597 10.0716 58.4812 9.04181 55.9121 8.28068V4.11765C55.9121 1.84769 54.0654 0.000976562 51.7954 0.000976562H38.2775C36.0075 0.000976562 34.1608 1.84769 34.1608 4.11765V8.25933C31.5871 9.01649 29.1058 10.0414 26.7499 11.3203L23.806 8.37674C22.2011 6.77215 19.5905 6.77215 17.9859 8.37674L8.42943 17.9335C7.6497 18.7133 7.22096 19.7488 7.22187 20.85C7.22279 21.9499 7.65275 22.9836 8.42882 23.7563L11.3559 26.6853C10.0721 29.0409 9.04297 31.5198 8.28154 34.0898H4.1179C1.84793 34.0898 0.0012207 35.9365 0.0012207 38.2065V51.7214C0.0012207 53.9913 1.84793 55.8381 4.1179 55.8381H8.25928C9.01674 58.4136 10.0416 60.8961 11.3206 63.252L8.37698 66.1956C7.6 66.9729 7.17186 68.0063 7.17186 69.1059C7.17186 70.2053 7.59969 71.2387 8.37698 72.016L17.9338 81.5728C19.5359 83.1746 22.1465 83.1761 23.7575 81.5722L26.6834 78.6438C29.0393 79.9285 31.5191 80.9586 34.0904 81.7201V85.8834C34.0904 88.1533 35.9371 90.0001 38.207 90.0001H51.7219C53.9919 90.0001 55.8386 88.1533 55.8386 85.8834V81.742C58.4144 80.9845 60.8969 79.9593 63.2523 78.681L66.1968 81.6277C67.8044 83.228 70.415 83.2264 72.0168 81.6243L81.5773 72.0635C83.1767 70.4565 83.1752 67.8462 81.5736 66.2438L78.645 63.3152C79.9294 60.961 80.9595 58.4816 81.7212 55.9106H85.8845C88.1545 55.9106 90.0012 54.0639 90.0012 51.7939V38.2791C90.0012 36.01 88.1545 34.1633 85.8845 34.1633ZM85.4271 51.3375H79.9715C78.9185 51.3375 78.0013 52.0565 77.7503 53.0793C76.9337 56.4065 75.616 59.5775 73.8343 62.504C73.2857 63.4051 73.4244 64.5648 74.1706 65.3107L78.0165 69.1563L69.105 78.0675L65.2505 74.2103C64.5056 73.4653 63.3492 73.3248 62.4475 73.8712C59.521 75.6441 56.3457 76.9551 53.0106 77.7674C51.986 78.0169 51.2645 78.9347 51.2645 79.9895V85.4266H38.6644V79.9712C38.6644 78.9183 37.9454 78.001 36.9226 77.75C33.596 76.9334 30.4238 75.6161 27.4939 73.8337C26.5925 73.2851 25.4331 73.4245 24.6876 74.1707L20.8453 78.0156L11.9356 69.1059L15.7922 65.2494C16.5365 64.505 16.6765 63.3481 16.131 62.4476C14.3574 59.5193 13.0465 56.3442 12.2348 53.0103C11.9853 51.9858 11.0675 51.2643 10.0127 51.2643H4.57561V38.6642H10.031C11.0842 38.6642 12.0009 37.9451 12.2521 36.9224C13.0682 33.5973 14.3852 30.4256 16.166 27.4961C16.7134 26.5956 16.5747 25.4372 15.8294 24.6916L11.9859 20.8454L20.8959 11.9354L24.7525 15.7919C25.4969 16.5363 26.6538 16.676 27.5546 16.1307C30.4835 14.3566 33.6579 13.0454 36.9891 12.2342C38.0137 11.9848 38.7349 11.0669 38.7349 10.0121V4.57506H51.338V10.0307C51.338 11.084 52.057 12.0009 53.0801 12.2519C56.4027 13.067 59.5738 14.3846 62.5058 16.1682C63.4072 16.7168 64.566 16.5775 65.3115 15.8316L69.1556 11.9872L78.0641 20.8957L74.2096 24.7529C73.4662 25.4969 73.3262 26.6526 73.8709 27.5531C75.6465 30.4891 76.9578 33.6647 77.768 36.9916C78.0174 38.0162 78.9353 38.7377 79.9901 38.7377H85.4271V51.3375ZM45.0011 16.1841C29.1117 16.1841 16.1844 29.1114 16.1844 45.0009C16.1844 58.6359 25.8668 70.5099 39.207 73.2348C40.4453 73.4873 41.6529 72.689 41.9054 71.4516C42.1582 70.2138 41.3598 69.0057 40.1224 68.7529C28.9022 66.4612 20.7585 56.4721 20.7585 45.0006C20.7585 31.6329 31.6338 20.7579 45.0011 20.7579C58.3687 20.7579 69.2438 31.6329 69.2438 45.0006C69.2438 56.4717 61.1001 66.4612 49.8798 68.7529C48.6421 69.0057 47.8441 70.2138 48.0965 71.4516C48.3179 72.5347 49.2712 73.2815 50.3351 73.2815C50.4867 73.2815 50.6407 73.2663 50.7953 73.2348C64.1354 70.5099 73.8178 58.6359 73.8178 45.0009C73.8178 29.1114 60.8909 16.1841 45.0011 16.1841ZM32.1952 37.2065C33.0881 36.3137 34.5362 36.3137 35.4294 37.2065C36.3226 38.0997 36.3226 39.5475 35.4294 40.4413L29.8185 46.0522L35.4294 51.6631C36.3226 52.5562 36.3226 54.0041 35.4294 54.8976C34.983 55.344 34.3975 55.5672 33.8123 55.5672C33.2271 55.5672 32.6416 55.344 32.1952 54.8976L24.9669 47.6693C24.0738 46.7761 24.0738 45.3283 24.9669 44.4348L32.1952 37.2065ZM54.7802 54.8976C55.2269 55.344 55.8124 55.5672 56.3975 55.5672C56.9827 55.5672 57.5682 55.344 58.0149 54.8976L65.2432 47.6693C66.1364 46.7758 66.1364 45.328 65.2432 44.4348L58.0149 37.2065C57.1215 36.3137 55.6736 36.3137 54.7805 37.2065C53.8873 38.1 53.8873 39.5479 54.7805 40.441L60.3916 46.0519L54.7805 51.6628C53.887 52.5562 53.887 54.0044 54.7802 54.8976ZM46.2034 36.2735C46.6328 35.0851 47.9437 34.4695 49.1315 34.8988C50.3198 35.3279 50.9349 36.6388 50.5058 37.8268L44.0055 55.831C43.6691 56.7626 42.7906 57.342 41.8541 57.342C41.5964 57.342 41.3342 57.2984 41.0777 57.2057C39.8897 56.7764 39.2743 55.4657 39.7034 54.2777L46.2034 36.2735Z" fill="url(#paint0_linear_1_514)"/>
<defs>
<linearGradient id="paint0_linear_1_514" x1="3.78269" y1="41.5972" x2="90.0258" y2="43.4141" gradientUnits="userSpaceOnUse">
<stop stop-color="#5A4CFC"/>
<stop offset="1" stop-color="#55A3FF"/>
</linearGradient>
</defs>
</svg>
