<svg width="478" height="324" viewBox="0 0 478 324" fill="none" xmlns="http://www.w3.org/2000/svg">
<g style="mix-blend-mode:overlay">
<path opacity="0.09" d="M332.973 145.865C344.738 152.669 344.738 163.698 332.973 170.496C321.209 177.301 302.127 177.301 290.356 170.496C278.592 163.692 278.592 152.663 290.356 145.865C302.127 139.06 321.202 139.06 332.973 145.865Z" fill="#7F8989"/>
<path opacity="0.18" d="M331.063 146.964C341.775 153.158 341.775 163.197 331.063 169.391C320.352 175.586 302.978 175.586 292.266 169.391C281.555 163.197 281.555 153.158 292.266 146.964C302.978 140.769 320.352 140.769 331.063 146.964Z" fill="#7E9493"/>
<path opacity="0.27" d="M329.153 148.069C338.811 153.654 338.811 162.707 329.153 168.292C319.495 173.877 303.834 173.877 294.17 168.292C284.512 162.707 284.512 153.654 294.17 148.069C303.828 142.485 319.489 142.485 329.153 148.069Z" fill="#7E9E9C"/>
<path opacity="0.36" d="M327.243 149.174C335.848 154.149 335.848 162.211 327.243 167.186C318.639 172.161 304.685 172.161 296.08 167.186C287.476 162.211 287.476 154.149 296.08 149.174C304.685 144.2 318.639 144.2 327.243 149.174Z" fill="#7DA8A6"/>
<path opacity="0.45" d="M325.34 150.274C332.891 154.638 332.891 161.716 325.34 166.081C317.788 170.445 305.541 170.445 297.99 166.081C290.439 161.716 290.439 154.638 297.99 150.274C305.541 145.909 317.788 145.909 325.34 150.274Z" fill="#7DB3B0"/>
<path opacity="0.55" d="M323.429 151.379C329.927 155.134 329.927 161.227 323.429 164.982C316.932 168.736 306.398 168.736 299.9 164.982C293.402 161.227 293.402 155.134 299.9 151.379C306.398 147.624 316.932 147.624 323.429 151.379Z" fill="#7CBDBA"/>
<path opacity="0.64" d="M321.52 152.485C326.964 155.63 326.964 160.731 321.52 163.883C316.075 167.027 307.248 167.027 301.804 163.883C296.359 160.738 296.359 155.636 301.804 152.485C307.248 149.34 316.075 149.34 321.52 152.485Z" fill="#7CC8C4"/>
<path opacity="0.73" d="M319.609 153.584C324.001 156.119 324.001 160.236 319.609 162.771C315.218 165.306 308.105 165.306 303.714 162.771C299.323 160.236 299.323 156.119 303.714 153.584C308.105 151.049 315.218 151.049 319.609 153.584Z" fill="#7BD2CE"/>
<path opacity="0.82" d="M317.706 154.689C321.044 156.621 321.044 159.747 317.706 161.672C314.368 163.603 308.962 163.603 305.624 161.672C302.286 159.74 302.286 156.614 305.624 154.689C308.962 152.758 314.368 152.758 317.706 154.689Z" fill="#7BDCD7"/>
<path opacity="0.91" d="M315.796 155.788C318.08 157.11 318.08 159.245 315.796 160.566C313.511 161.888 309.818 161.888 307.534 160.566C305.249 159.245 305.249 157.11 307.534 155.788C309.818 154.467 313.518 154.467 315.796 155.788Z" fill="#7AE7E1"/>
<path d="M313.886 156.894C315.11 157.606 315.11 158.756 313.886 159.461C312.661 160.172 310.669 160.172 309.438 159.461C308.213 158.749 308.213 157.599 309.438 156.894C310.669 156.182 312.655 156.182 313.886 156.894Z" fill="#7AF1EB"/>
</g>
<g style="mix-blend-mode:overlay">
<path opacity="0.09" d="M374.086 213C390.972 222.759 390.972 238.585 374.086 248.35C357.201 258.109 329.826 258.109 312.94 248.35C296.055 238.591 296.055 222.765 312.94 213C329.826 203.241 357.201 203.241 374.086 213Z" fill="#7F8989"/>
<path opacity="0.18" d="M371.446 214.525C386.879 223.445 386.879 237.905 371.446 246.825C356.014 255.746 331 255.746 315.574 246.825C300.141 237.905 300.141 223.445 315.574 214.525C331.006 205.605 356.02 205.605 371.446 214.525Z" fill="#7E9493"/>
<path opacity="0.27" d="M368.813 216.043C382.786 224.118 382.786 237.219 368.813 245.294C354.84 253.369 332.186 253.369 318.207 245.294C304.234 237.219 304.234 224.118 318.207 216.043C332.18 207.968 354.834 207.968 368.813 216.043Z" fill="#7E9E9C"/>
<path opacity="0.36" d="M366.173 217.568C378.693 224.804 378.693 236.539 366.173 243.776C353.653 251.012 333.36 251.012 320.84 243.776C308.321 236.539 308.321 224.804 320.84 217.568C333.36 210.332 353.653 210.332 366.173 217.568Z" fill="#7DA8A6"/>
<path opacity="0.45" d="M363.54 219.093C374.6 225.491 374.6 235.853 363.54 242.251C352.479 248.649 334.541 248.649 323.48 242.251C312.42 235.853 312.42 225.491 323.48 219.093C334.541 212.695 352.479 212.695 363.54 219.093Z" fill="#7DB3B0"/>
<path opacity="0.55" d="M360.906 220.618C370.514 226.171 370.514 235.173 360.906 240.726C351.299 246.279 335.727 246.279 326.12 240.726C316.513 235.173 316.513 226.171 326.12 220.618C335.727 215.065 351.299 215.065 360.906 220.618Z" fill="#7CBDBA"/>
<path opacity="0.64" d="M358.267 222.143C366.414 226.857 366.414 234.493 358.267 239.208C350.119 243.922 336.901 243.922 328.753 239.208C320.606 234.493 320.606 226.857 328.753 222.143C336.901 217.428 350.119 217.428 358.267 222.143Z" fill="#7CC8C4"/>
<path opacity="0.73" d="M355.633 223.668C362.328 227.537 362.328 233.814 355.633 237.683C348.939 241.552 338.081 241.552 331.387 237.683C324.692 233.814 324.692 227.537 331.387 223.668C338.081 219.798 348.939 219.798 355.633 223.668Z" fill="#7BD2CE"/>
<path opacity="0.82" d="M353 225.186C358.241 228.217 358.241 233.128 353 236.152C347.758 239.182 339.268 239.182 334.027 236.152C328.785 233.121 328.785 228.21 334.027 225.186C339.268 222.155 347.758 222.155 353 225.186Z" fill="#7BDCD7"/>
<path opacity="0.91" d="M350.36 226.71C354.142 228.896 354.142 232.441 350.36 234.633C346.578 236.819 340.442 236.819 336.66 234.633C332.878 232.448 332.878 228.902 336.66 226.71C340.442 224.525 346.578 224.525 350.36 226.71Z" fill="#7AE7E1"/>
<path d="M347.727 228.235C350.055 229.582 350.055 231.761 347.727 233.108C345.398 234.455 341.622 234.455 339.3 233.108C336.971 231.761 336.971 229.582 339.3 228.235C341.629 226.888 345.404 226.888 347.727 228.235Z" fill="#7AF1EB"/>
</g>
<path d="M338.811 201.418L338.633 201.316L0 0.616455L0.349008 0.000179946L338.811 200.598L404.437 162.662L404.792 163.279L338.811 201.418Z" fill="#55C3FF"/>
<path d="M340.461 229.246L294.157 202.479V176.271H294.862V202.072L340.81 228.629L340.461 229.246Z" fill="#55C3FF"/>
<path d="M346.832 228.699C344.922 227.594 341.832 227.594 339.922 228.699C338.012 229.805 338.012 231.59 339.922 232.695C341.832 233.801 344.922 233.801 346.832 232.695C348.742 231.59 348.742 229.805 346.832 228.699Z" fill="#55C3FF"/>
<path d="M293.453 319.285L293.104 318.675L323.88 300.886V274.393H324.584V301.293L293.453 319.285Z" fill="#55C3FF"/>
<path d="M290.579 323.117C289.544 323.117 288.504 322.881 287.698 322.418C286.86 321.935 286.403 321.274 286.403 320.55C286.403 319.826 286.866 319.165 287.698 318.682C289.309 317.748 291.841 317.748 293.459 318.682C294.297 319.165 294.754 319.832 294.754 320.55C294.754 321.268 294.291 321.935 293.459 322.418C292.654 322.881 291.613 323.117 290.579 323.117ZM290.579 318.682C289.665 318.682 288.751 318.885 288.053 319.285C287.444 319.635 287.107 320.086 287.107 320.543C287.107 321.001 287.444 321.446 288.053 321.801C289.443 322.608 291.708 322.608 293.11 321.801C293.72 321.452 294.056 321.001 294.056 320.543C294.056 320.086 293.72 319.641 293.11 319.285C292.412 318.885 291.499 318.682 290.585 318.682H290.579Z" fill="#55C3FF"/>
<path d="M310.732 157.872H265.526V158.577H310.732V157.872Z" fill="#55C3FF"/>
<path d="M315.161 156.227C313.251 155.121 310.148 155.121 308.238 156.227C306.328 157.332 306.328 159.124 308.238 160.229C310.148 161.335 313.251 161.335 315.161 160.229C317.071 159.124 317.071 157.332 315.161 156.227Z" fill="#55C3FF"/>
<path d="M245.512 320.296L245.335 320.194L167.5 275.2L167.855 274.583L245.512 319.476L394.494 233.604L338.634 201.316L338.989 200.707L395.909 233.604L395.376 233.909L245.512 320.296Z" fill="#55C3FF"/>
<path d="M391.301 86.8164L391.251 105.686L373.248 116.201L373.299 97.3375L391.301 86.8164Z" fill="#D5900E"/>
<path d="M373.299 97.3375L373.248 116.201L355.132 105.686L355.182 86.8228L373.299 97.3375Z" fill="#FFC400"/>
<path d="M391.301 86.8165L373.299 97.3377L355.182 86.8229L373.185 76.3018L391.301 86.8165Z" fill="#FFDE38"/>
<path d="M403.574 71.6445L403.536 84.3195L391.441 91.3844L391.479 78.7095L403.574 71.6445Z" fill="#06C0C0"/>
<path d="M391.479 78.7095L391.441 91.3844L379.27 84.3195L379.308 71.6445L391.479 78.7095Z" fill="#19E9DF"/>
<path d="M403.574 71.6445L391.479 78.7094L379.308 71.6445L391.403 64.5796L403.574 71.6445Z" fill="#28F9EF"/>
<path d="M377.836 128.406L377.792 143.565L363.324 152.021L363.368 136.862L377.836 128.406Z" fill="#06C0C0"/>
<path d="M363.368 136.862L363.324 152.021L348.754 143.565L348.799 128.406L363.368 136.862Z" fill="#19E9DF"/>
<path d="M377.836 128.406L363.368 136.862L348.799 128.406L363.273 119.949L377.836 128.406Z" fill="#28F9EF"/>
<path d="M470.424 143.564L470.392 153.533L460.88 159.092L460.912 149.124L470.424 143.564Z" fill="#06C0C0"/>
<path d="M460.912 149.124L460.881 159.092L451.311 153.533L451.337 143.564L460.912 149.124Z" fill="#19E9DF"/>
<path d="M470.424 143.565L460.912 149.124L451.337 143.565L460.849 138.012L470.424 143.565Z" fill="#28F9EF"/>
<path d="M444.166 130.972L444.077 162.936L413.574 180.757L413.663 148.793L444.166 130.972Z" fill="#06C0C0"/>
<path d="M413.663 148.793L413.574 180.757L382.874 162.936L382.963 130.972L413.663 148.793Z" fill="#19E9DF"/>
<path d="M444.166 130.972L413.663 148.793L382.963 130.972L413.466 113.151L444.166 130.972Z" fill="#28F9EF"/>
<path d="M457.403 117.599L457.352 136.767L439.058 147.459L439.115 128.285L457.403 117.599Z" fill="#CFCDE2"/>
<path d="M439.115 128.285L439.058 147.459L420.643 136.767L420.7 117.599L439.115 128.285Z" fill="#E7E6F1"/>
<path d="M457.403 117.598L439.115 128.285L420.7 117.598L438.995 106.906L457.403 117.598Z" fill="#F4F4FB"/>
<path d="M415.357 105.019L415.307 124.708L396.517 135.686L396.575 115.997L415.357 105.019Z" fill="#CFCDE2"/>
<path d="M396.575 115.997L396.517 135.686L377.608 124.708L377.658 105.019L396.575 115.997Z" fill="#E7E6F1"/>
<path d="M415.357 105.019L396.575 115.997L377.658 105.019L396.448 94.04L415.357 105.019Z" fill="#F4F4FB"/>
<path d="M477.5 92.2231L477.461 106.061L464.256 113.774L464.294 99.9361L477.5 92.2231Z" fill="#291069"/>
<path d="M464.294 99.9361L464.256 113.774L450.962 106.061L451.007 92.2231L464.294 99.9361Z" fill="#442397"/>
<path d="M477.5 92.2232L464.294 99.9362L451.007 92.2232L464.206 84.5103L477.5 92.2232Z" fill="#5430AF"/>
<path d="M400.084 159.378L400.027 180.02L380.33 191.526L380.387 170.89L400.084 159.378Z" fill="#CFCDE2"/>
<path d="M380.387 170.89L380.33 191.526L360.506 180.02L360.563 159.384L380.387 170.89Z" fill="#E7E6F1"/>
<path d="M400.084 159.378L380.387 170.89L360.563 159.384L380.26 147.872L400.084 159.378Z" fill="#F4F4FB"/>
<path d="M452.225 164.766L452.187 178.603L438.982 186.316L439.02 172.479L452.225 164.766Z" fill="#D5D6E0"/>
<path d="M439.02 172.479L438.982 186.316L425.694 178.603L425.732 164.766L439.02 172.479Z" fill="#F2F3F8"/>
<path d="M452.225 164.766L439.02 172.479L425.732 164.766L438.938 157.046L452.225 164.766Z" fill="#F4F4FB"/>
<path d="M441.647 83.6206L441.596 101.956L424.095 112.179L424.146 93.8431L441.647 83.6206Z" fill="#06C0C0"/>
<path d="M424.146 93.8431L424.095 112.179L406.48 101.956L406.531 83.6206L424.146 93.8431Z" fill="#19E9DF"/>
<path d="M441.647 83.6205L424.146 93.843L406.531 83.6205L424.032 73.3916L441.647 83.6205Z" fill="#28F9EF"/>
<path d="M403.745 173.552L403.726 182.333L395.344 187.231L395.369 178.451L403.745 173.552Z" fill="#291069"/>
<path d="M395.369 178.451L395.343 187.231L386.91 182.333L386.936 173.552L395.369 178.451Z" fill="#442397"/>
<path d="M403.745 173.552L395.369 178.451L386.936 173.552L395.312 168.66L403.745 173.552Z" fill="#5430AF"/>
<path d="M427.611 68.7222L427.585 79.1607L417.616 84.9867L417.648 74.5418L427.611 68.7222Z" fill="#D5D6E0"/>
<path d="M417.648 74.5418L417.616 84.9867L407.59 79.1607L407.616 68.7222L417.648 74.5418Z" fill="#F2F3F8"/>
<path d="M427.611 68.722L417.648 74.5417L407.616 68.722L417.585 62.896L427.611 68.722Z" fill="#F4F4FB"/>
<g opacity="0.2">
<path d="M339.249 101.658L329.718 107.166L320.187 101.658L329.718 96.1494L339.249 101.658Z" fill="white"/>
<path opacity="0.99" d="M329.718 95.4443L329.749 95.4634L339.16 100.902L339.249 100.953L329.718 106.461L320.187 100.953L320.276 100.902L329.718 95.4443Z" fill="white"/>
<path opacity="0.98" d="M329.718 94.7393L329.749 94.7583L339.16 100.203L339.249 100.254L329.718 105.762L320.187 100.254L320.276 100.197L329.718 94.7393Z" fill="white"/>
<path opacity="0.98" d="M329.718 94.0405L329.749 94.0596L339.16 99.498L339.249 99.5489L329.718 105.057L320.187 99.5489L320.276 99.498L329.718 94.0405Z" fill="white"/>
<path opacity="0.97" d="M329.718 93.335L329.749 93.354L339.16 98.7925L339.242 98.8497L329.718 104.352L320.187 98.8497L320.276 98.7925L329.718 93.335Z" fill="white"/>
<path opacity="0.96" d="M329.718 92.6362L329.749 92.6553L339.16 98.0937C339.16 98.0937 339.249 98.1446 339.242 98.1446C339.242 98.1446 329.718 103.653 329.711 103.653L320.187 98.1446L320.269 98.0937L329.711 92.6362H329.718Z" fill="white"/>
<path opacity="0.95" d="M329.718 91.9312L329.749 91.9502L339.16 97.3887L339.242 97.4395C339.242 97.4395 329.718 102.948 329.711 102.948L320.187 97.4395C320.187 97.4395 320.269 97.3887 320.269 97.3823L329.711 91.9248L329.718 91.9312Z" fill="white"/>
<path opacity="0.94" d="M329.718 91.2256L329.749 91.2447L339.16 96.6831C339.16 96.6831 339.242 96.7339 339.242 96.7403L329.718 102.249L320.193 96.7403C320.193 96.7403 320.276 96.6895 320.276 96.6831L329.718 91.2256Z" fill="white"/>
<path opacity="0.93" d="M329.718 90.5269L329.749 90.5459L339.16 95.9844C339.16 95.9844 339.242 96.0352 339.242 96.0416L329.718 101.544L320.193 96.0416C320.193 96.0416 320.276 95.9907 320.276 95.9844L329.718 90.5269Z" fill="white"/>
<path opacity="0.93" d="M329.718 89.8218C329.718 89.8218 329.749 89.8345 329.749 89.8408L339.16 95.2793C339.16 95.2793 339.242 95.3301 339.242 95.3365L329.718 100.838L320.193 95.3365C320.193 95.3365 320.269 95.2857 320.276 95.2793L329.718 89.8218Z" fill="white"/>
<path opacity="0.92" d="M329.711 89.123C329.711 89.123 329.743 89.1358 329.743 89.1421L339.154 94.5806C339.154 94.5806 339.236 94.6314 339.236 94.6378C339.236 94.6378 329.718 100.14 329.711 100.14L320.193 94.6378C320.193 94.6378 320.269 94.5869 320.276 94.5806L329.718 89.123H329.711Z" fill="white"/>
<path opacity="0.91" d="M329.711 88.4175C329.711 88.4175 329.743 88.4302 329.743 88.4365L339.154 93.875C339.154 93.875 339.236 93.9258 339.236 93.9322C339.236 93.9322 329.718 99.4342 329.711 99.4342L320.193 93.9322C320.193 93.9322 320.269 93.875 320.276 93.875L329.718 88.4175H329.711Z" fill="white"/>
<path opacity="0.9" d="M329.711 87.7124C329.711 87.7124 329.743 87.7251 329.743 87.7315L339.154 93.1699C339.154 93.1699 339.236 93.2271 339.23 93.2271C339.23 93.2271 329.711 98.7291 329.705 98.7291L320.187 93.2271C320.187 93.2271 320.263 93.1699 320.269 93.1699L329.711 87.7124Z" fill="white"/>
<path opacity="0.89" d="M329.711 87.0137C329.711 87.0137 329.743 87.0264 329.743 87.0327L339.154 92.4712C339.154 92.4712 339.236 92.5284 339.23 92.5284C339.23 92.5284 329.711 98.0304 329.705 98.0304L320.187 92.5284L320.263 92.4712L329.705 87.0137H329.711Z" fill="white"/>
<path opacity="0.88" d="M329.711 86.3081C329.711 86.3081 329.743 86.3208 329.743 86.3272L339.154 91.7656C339.154 91.7656 339.236 91.8228 339.23 91.8228C339.23 91.8228 329.711 97.3248 329.705 97.3248L320.187 91.8228L320.263 91.7656L329.699 86.3081H329.711Z" fill="white"/>
<path opacity="0.88" d="M329.711 85.6094C329.711 85.6094 329.743 85.6221 329.749 85.6221L339.16 91.0606C339.16 91.0606 339.242 91.1177 339.236 91.1177C339.236 91.1177 329.718 96.6197 329.711 96.6197L320.193 91.1177C320.193 91.1177 320.263 91.0606 320.269 91.0606L329.705 85.603L329.711 85.6094Z" fill="white"/>
<path opacity="0.87" d="M329.711 84.9043C329.711 84.9043 329.743 84.917 329.749 84.917L339.16 90.3555C339.16 90.3555 339.242 90.4127 339.236 90.4127C339.236 90.4127 329.724 95.9147 329.711 95.9147L320.193 90.4127C320.193 90.4127 320.263 90.3555 320.269 90.3555L329.705 84.8979L329.711 84.9043Z" fill="white"/>
<path opacity="0.86" d="M329.711 84.1992C329.711 84.1992 329.743 84.2119 329.749 84.2119L339.16 89.6504C339.16 89.6504 339.242 89.7076 339.236 89.7076C339.236 89.7076 329.724 95.2096 329.711 95.2096L320.199 89.7076C320.199 89.7076 320.269 89.6504 320.276 89.6504L329.711 84.1929V84.1992Z" fill="white"/>
<path opacity="0.85" d="M329.711 83.5C329.711 83.5 329.743 83.5127 329.749 83.5127L339.16 88.9512C339.16 88.9512 339.242 89.0084 339.236 89.0084C339.236 89.0084 329.724 94.5103 329.711 94.5103L320.199 89.0084C320.199 89.0084 320.269 88.9512 320.276 88.9512L329.711 83.4937V83.5Z" fill="white"/>
<path opacity="0.84" d="M329.711 82.7949C329.711 82.7949 329.743 82.8076 329.749 82.8076L339.16 88.2461C339.16 88.2461 339.242 88.3033 339.236 88.3033C339.236 88.3033 329.724 93.7989 329.711 93.7989L320.199 88.3033C320.199 88.3033 320.269 88.2461 320.276 88.2461L329.711 82.7886V82.7949Z" fill="white"/>
<path opacity="0.83" d="M329.711 82.0962C329.711 82.0962 329.743 82.1089 329.749 82.1089L339.16 87.5474C339.16 87.5474 339.242 87.6046 339.236 87.6046C339.236 87.6046 329.724 93.1002 329.718 93.1002L320.206 87.6046C320.206 87.6046 320.276 87.5474 320.282 87.541L329.718 82.0835L329.711 82.0962Z" fill="white"/>
<path opacity="0.83" d="M329.711 81.3906C329.711 81.3906 329.743 81.4033 329.749 81.4033L339.16 86.8418C339.16 86.8418 339.242 86.899 339.23 86.9053C339.23 86.9053 329.718 92.401 329.711 92.401L320.199 86.9053C320.199 86.9053 320.263 86.8482 320.276 86.8418L329.711 81.3843V81.3906Z" fill="white"/>
<path opacity="0.82" d="M329.711 80.6856C329.711 80.6856 329.743 80.6983 329.749 80.6983L339.16 86.1367C339.16 86.1367 339.242 86.1939 339.23 86.2003C339.23 86.2003 329.724 91.6959 329.711 91.6959L320.199 86.2003C320.199 86.2003 320.263 86.1431 320.269 86.1367L329.705 80.6792L329.711 80.6856Z" fill="white"/>
<path opacity="0.81" d="M329.711 79.9868C329.711 79.9868 329.743 79.9995 329.749 79.9995L339.16 85.438C339.16 85.438 339.236 85.4952 339.23 85.5015C339.23 85.5015 329.724 90.9972 329.711 90.9972L320.206 85.5015C320.206 85.5015 320.269 85.4443 320.276 85.438L329.711 79.9805V79.9868Z" fill="white"/>
<path opacity="0.8" d="M329.711 79.2817C329.711 79.2817 329.743 79.2944 329.749 79.2944L339.16 84.7329C339.16 84.7329 339.236 84.7901 339.23 84.7964C339.23 84.7964 329.724 90.2921 329.711 90.2921L320.206 84.7964C320.206 84.7964 320.269 84.7393 320.276 84.7329L329.711 79.2754V79.2817Z" fill="white"/>
<path opacity="0.79" d="M329.711 78.5825C329.711 78.5825 329.743 78.5952 329.749 78.5952L339.16 84.0337C339.16 84.0337 339.236 84.0909 339.23 84.0972C339.23 84.0972 329.724 89.5929 329.711 89.5929L320.206 84.0972C320.206 84.0972 320.269 84.04 320.276 84.0337L329.711 78.5825Z" fill="white"/>
<path opacity="0.79" d="M329.711 77.8774C329.711 77.8774 329.743 77.8901 329.749 77.8901L339.16 83.3286C339.16 83.3286 339.236 83.3858 339.23 83.3921C339.23 83.3921 329.724 88.8878 329.711 88.8878L320.206 83.3921C320.206 83.3921 320.269 83.335 320.276 83.3286L329.711 77.8774Z" fill="white"/>
<path opacity="0.78" d="M329.711 77.1724C329.711 77.1724 329.743 77.1851 329.749 77.1851L339.16 82.6235C339.16 82.6235 339.236 82.6807 339.23 82.6871C339.23 82.6871 329.724 88.1827 329.711 88.1827L320.206 82.6871C320.206 82.6871 320.263 82.6299 320.276 82.6235L329.711 77.1724Z" fill="white"/>
<path opacity="0.77" d="M329.711 76.4731C329.711 76.4731 329.743 76.4858 329.749 76.4858L339.16 81.9243C339.16 81.9243 339.236 81.9815 339.23 81.9878C339.23 81.9878 329.724 87.4835 329.711 87.4835L320.206 81.9878C320.206 81.9878 320.263 81.9307 320.276 81.9243L329.711 76.4731Z" fill="white"/>
<path opacity="0.76" d="M329.711 75.7681C329.711 75.7681 329.743 75.7808 329.749 75.7808L339.16 81.2192C339.16 81.2192 339.236 81.2764 339.23 81.2828C339.23 81.2828 329.73 86.7784 329.711 86.7784L320.212 81.2828C320.212 81.2828 320.269 81.2256 320.282 81.2192L329.718 75.7681H329.711Z" fill="white"/>
<path opacity="0.75" d="M329.711 75.0693C329.711 75.0693 329.743 75.082 329.749 75.082L339.16 80.5205C339.16 80.5205 339.236 80.5777 339.223 80.584C339.223 80.584 329.724 86.0733 329.705 86.0733L320.206 80.584C320.206 80.584 320.263 80.5269 320.269 80.5205L329.705 75.0693H329.711Z" fill="white"/>
<path opacity="0.74" d="M329.711 74.3643C329.711 74.3643 329.743 74.377 329.749 74.377L339.16 79.8154C339.16 79.8154 339.236 79.8726 339.223 79.879C339.223 79.879 329.724 85.3682 329.705 85.3682L320.206 79.879C320.206 79.879 320.263 79.8218 320.269 79.8154L329.705 74.3643H329.711Z" fill="white"/>
<path opacity="0.74" d="M329.711 73.6587C329.711 73.6587 329.743 73.6714 329.749 73.6714L339.16 79.1099C339.16 79.1099 339.236 79.167 339.223 79.1734C339.223 79.1734 329.724 84.6627 329.711 84.6627L320.212 79.1734C320.212 79.1734 320.269 79.1162 320.276 79.1099L329.711 73.6587Z" fill="white"/>
<path opacity="0.73" d="M329.711 72.96C329.711 72.96 329.743 72.9727 329.749 72.9727L339.16 78.4111C339.16 78.4111 339.236 78.4683 339.223 78.4747C339.223 78.4747 329.724 83.964 329.711 83.964L320.212 78.4747C320.212 78.4747 320.263 78.4175 320.276 78.4048L329.711 72.9536V72.96Z" fill="white"/>
<path opacity="0.72" d="M329.711 72.2549C329.711 72.2549 329.743 72.2676 329.749 72.2676L339.16 77.706C339.16 77.706 339.236 77.7632 339.223 77.7759C339.223 77.7759 329.724 83.2652 329.711 83.2652L320.212 77.7759C320.212 77.7759 320.263 77.7124 320.276 77.706L329.711 72.2549Z" fill="white"/>
<path opacity="0.71" d="M329.705 71.5557C329.705 71.5557 329.737 71.562 329.743 71.5684L339.154 77.0068C339.154 77.0068 339.23 77.0704 339.217 77.0767C339.217 77.0767 329.724 82.566 329.705 82.566L320.212 77.0767C320.212 77.0767 320.263 77.0132 320.276 77.0068L329.711 71.5557H329.705Z" fill="white"/>
<path opacity="0.7" d="M329.705 70.8506C329.705 70.8506 329.737 70.8569 329.743 70.8633L339.154 76.3018C339.154 76.3018 339.23 76.3653 339.217 76.3716C339.217 76.3716 329.724 81.8609 329.705 81.8609L320.212 76.3716C320.212 76.3716 320.263 76.3081 320.276 76.3018L329.705 70.8506Z" fill="white"/>
<path opacity="0.69" d="M329.705 70.1455C329.705 70.1455 329.737 70.1519 329.743 70.1582L339.154 75.5967C339.154 75.5967 339.23 75.6602 339.217 75.6666C339.217 75.6666 329.724 81.1558 329.705 81.1558L320.212 75.6666C320.212 75.6666 320.263 75.603 320.276 75.5967L329.705 70.1455Z" fill="white"/>
<path opacity="0.69" d="M329.705 69.4463C329.705 69.4463 329.737 69.4526 329.743 69.459L339.154 74.8975C339.154 74.8975 339.23 74.961 339.217 74.9673C339.217 74.9673 329.724 80.4566 329.705 80.4566L320.212 74.9673C320.212 74.9673 320.263 74.9038 320.276 74.8975L329.705 69.4463Z" fill="white"/>
<path opacity="0.68" d="M329.705 68.7412C329.705 68.7412 329.743 68.7476 329.743 68.7539L339.154 74.1924C339.154 74.1924 339.223 74.2559 339.211 74.2623C339.211 74.2623 329.718 79.7516 329.699 79.7516L320.206 74.2623C320.206 74.2623 320.25 74.1987 320.263 74.1924L329.692 68.7412H329.705Z" fill="white"/>
<path opacity="0.67" d="M329.705 68.0425C329.705 68.0425 329.743 68.0488 329.749 68.0552L339.16 73.4937C339.16 73.4937 339.23 73.5572 339.217 73.5635C339.217 73.5635 329.724 79.0465 329.705 79.0465L320.212 73.5635C320.212 73.5635 320.257 73.5 320.269 73.4937L329.699 68.0425H329.705Z" fill="white"/>
<path opacity="0.66" d="M329.705 67.3374C329.705 67.3374 329.743 67.3438 329.749 67.3501L339.16 72.7886C339.16 72.7886 339.23 72.8521 339.217 72.8585C339.217 72.8585 329.73 78.3414 329.705 78.3414L320.218 72.8585C320.218 72.8585 320.263 72.7949 320.276 72.7886L329.705 67.3374Z" fill="white"/>
<path opacity="0.65" d="M329.705 66.6318C329.705 66.6318 329.743 66.6382 329.749 66.6445L339.16 72.083C339.16 72.083 339.23 72.1465 339.217 72.1529C339.217 72.1529 329.73 77.6358 329.705 77.6358L320.218 72.1529C320.218 72.1529 320.263 72.0894 320.276 72.083L329.705 66.6318Z" fill="white"/>
<path opacity="0.64" d="M329.705 65.9331C329.705 65.9331 329.743 65.9395 329.749 65.9458L339.16 71.3843C339.16 71.3843 339.23 71.4478 339.217 71.4542C339.217 71.4542 329.73 76.9371 329.705 76.9371L320.218 71.4542C320.218 71.4542 320.263 71.3906 320.276 71.3843L329.705 65.9331Z" fill="white"/>
<path opacity="0.64" d="M329.705 65.228C329.705 65.228 329.743 65.2344 329.749 65.2407L339.16 70.6792C339.16 70.6792 339.23 70.7427 339.217 70.7491C339.217 70.7491 329.73 76.232 329.705 76.232L320.218 70.7491C320.218 70.7491 320.257 70.6856 320.276 70.6792L329.705 65.228Z" fill="white"/>
<path opacity="0.63" d="M329.705 64.5288C329.705 64.5288 329.743 64.5352 329.749 64.5415L339.16 69.98C339.16 69.98 339.23 70.0435 339.217 70.0499C339.217 70.0499 329.73 75.5328 329.711 75.5328L320.225 70.0499C320.225 70.0499 320.263 69.9863 320.282 69.98L329.711 64.5288H329.705Z" fill="white"/>
<path opacity="0.62" d="M329.705 63.8237C329.705 63.8237 329.743 63.8301 329.749 63.8364L339.16 69.2749C339.16 69.2749 339.23 69.3384 339.217 69.3448C339.217 69.3448 329.73 74.8277 329.711 74.8277L320.225 69.3448C320.225 69.3448 320.263 69.2813 320.282 69.2749L329.711 63.8237H329.705Z" fill="white"/>
<path opacity="0.61" d="M329.705 63.1187C329.705 63.1187 329.743 63.125 329.749 63.1314L339.16 68.5698C339.16 68.5698 339.23 68.6334 339.211 68.6461C339.211 68.6461 329.73 74.129 329.705 74.129L320.225 68.6461C320.225 68.6461 320.263 68.5825 320.282 68.5698L329.711 63.1187H329.705Z" fill="white"/>
<path opacity="0.6" d="M329.705 62.4199C329.705 62.4199 329.743 62.4263 329.749 62.4326L339.16 67.8711C339.16 67.8711 339.23 67.9346 339.211 67.9473C339.211 67.9473 329.73 73.4303 329.705 73.4303L320.225 67.9473C320.225 67.9473 320.263 67.8838 320.276 67.8711L329.705 62.4199Z" fill="white"/>
<path opacity="0.6" d="M329.705 61.7144C329.705 61.7144 329.743 61.7144 329.749 61.7271L339.16 67.1655C339.16 67.1655 339.23 67.2291 339.211 67.2418C339.211 67.2418 329.73 72.7247 329.705 72.7247L320.225 67.2418C320.225 67.2418 320.263 67.1782 320.276 67.1655L329.705 61.7144Z" fill="white"/>
<path opacity="0.59" d="M329.705 61.0156C329.705 61.0156 329.743 61.0156 329.749 61.0283L339.16 66.4668C339.16 66.4668 339.23 66.5303 339.211 66.543C339.211 66.543 329.73 72.026 329.705 72.026L320.225 66.543C320.225 66.543 320.257 66.4795 320.276 66.4668L329.705 61.0156Z" fill="white"/>
<path opacity="0.58" d="M329.705 60.3105C329.705 60.3105 329.743 60.3105 329.749 60.3233L339.16 65.7617C339.16 65.7617 339.23 65.8252 339.211 65.838C339.211 65.838 329.73 71.3145 329.705 71.3145L320.225 65.838C320.225 65.838 320.257 65.7744 320.276 65.7617L329.705 60.3105Z" fill="white"/>
<path opacity="0.57" d="M329.705 59.6113C329.705 59.6113 329.743 59.6113 329.749 59.624L339.16 65.0625C339.16 65.0625 339.23 65.126 339.211 65.1387C339.211 65.1387 329.73 70.6153 329.705 70.6153L320.225 65.1387C320.225 65.1387 320.257 65.0752 320.276 65.0625L329.705 59.6113Z" fill="white"/>
<path opacity="0.56" d="M329.705 58.9063C329.705 58.9063 329.743 58.9062 329.749 58.919L339.16 64.3574C339.16 64.3574 339.23 64.421 339.211 64.4337C339.211 64.4337 329.737 69.9102 329.705 69.9102L320.225 64.4337C320.225 64.4337 320.257 64.3701 320.276 64.3574L329.705 58.9063Z" fill="white"/>
<path opacity="0.55" d="M329.705 58.2012C329.705 58.2012 329.743 58.2012 329.749 58.2139L339.16 63.6523C339.16 63.6523 339.23 63.7159 339.211 63.7286C339.211 63.7286 329.737 69.2052 329.705 69.2052L320.231 63.7286C320.231 63.7286 320.263 63.665 320.282 63.6523L329.711 58.2012H329.705Z" fill="white"/>
<path opacity="0.55" d="M329.705 57.5024C329.705 57.5024 329.743 57.5024 329.749 57.5151L339.16 62.9536C339.16 62.9536 339.23 63.0171 339.211 63.0298C339.211 63.0298 329.737 68.5064 329.705 68.5064L320.231 63.0298C320.231 63.0298 320.263 62.9663 320.282 62.9536L329.711 57.5024H329.705Z" fill="white"/>
<path opacity="0.54" d="M329.705 56.7969C329.705 56.7969 329.743 56.7969 329.749 56.8096L339.16 62.248C339.16 62.248 339.223 62.3116 339.204 62.3243C339.204 62.3243 329.73 67.8009 329.699 67.8009L320.225 62.3243C320.225 62.3243 320.25 62.2608 320.269 62.248L329.699 56.7969H329.705Z" fill="white"/>
<path opacity="0.53" d="M329.705 56.0982C329.705 56.0982 329.743 56.0981 329.749 56.1045L339.16 61.543C339.16 61.543 339.223 61.6065 339.204 61.6192C339.204 61.6192 329.73 67.0958 329.705 67.0958L320.231 61.6192C320.231 61.6192 320.257 61.5557 320.276 61.543L329.699 56.0918L329.705 56.0982Z" fill="white"/>
<path opacity="0.52" d="M329.705 55.3931C329.705 55.3931 329.743 55.3931 329.749 55.3994L339.16 60.8379C339.16 60.8379 339.223 60.9014 339.204 60.9141C339.204 60.9141 329.73 66.3907 329.705 66.3907L320.231 60.9141C320.231 60.9141 320.257 60.8442 320.276 60.8379L329.699 55.3867L329.705 55.3931Z" fill="white"/>
<path opacity="0.51" d="M329.699 54.6875C329.699 54.6875 329.737 54.6875 329.743 54.6939L339.154 60.1323C339.154 60.1323 339.217 60.2022 339.198 60.2086C339.198 60.2086 329.724 65.6851 329.699 65.6851L320.225 60.2086C320.225 60.2086 320.25 60.1387 320.269 60.1323L329.692 54.6812L329.699 54.6875Z" fill="white"/>
<path opacity="0.5" d="M329.699 53.9888C329.699 53.9888 329.737 53.9888 329.743 53.9951L339.154 59.4336C339.154 59.4336 339.217 59.5035 339.198 59.5098C339.198 59.5098 329.73 64.9864 329.699 64.9864L320.231 59.5098C320.231 59.5098 320.257 59.4399 320.276 59.4336L329.699 53.9824V53.9888Z" fill="white"/>
<path opacity="0.5" d="M329.699 53.2837C329.699 53.2837 329.737 53.2837 329.743 53.29L339.154 58.7285C339.154 58.7285 339.217 58.7984 339.198 58.8111C339.198 58.8111 329.73 64.2877 329.699 64.2877L320.231 58.8111C320.231 58.8111 320.257 58.7412 320.276 58.7285L329.699 53.2837Z" fill="white"/>
<path opacity="0.49" d="M329.699 52.585C329.699 52.585 329.737 52.585 329.743 52.5913L339.154 58.0298C339.154 58.0298 339.217 58.0997 339.198 58.1124C339.198 58.1124 329.73 63.5826 329.699 63.5826L320.231 58.1124C320.231 58.1124 320.25 58.0425 320.276 58.0298L329.699 52.585Z" fill="white"/>
<path opacity="0.48" d="M329.699 51.8794C329.699 51.8794 329.737 51.8794 329.743 51.8857L339.154 57.3242C339.154 57.3242 339.217 57.3941 339.198 57.4068C339.198 57.4068 329.73 62.877 329.699 62.877L320.231 57.4068C320.231 57.4068 320.25 57.3369 320.276 57.3242L329.699 51.8794Z" fill="white"/>
<path opacity="0.47" d="M329.699 51.1743C329.699 51.1743 329.737 51.1743 329.749 51.1807L339.16 56.6191C339.16 56.6191 339.223 56.689 339.204 56.7017C339.204 56.7017 329.737 62.172 329.705 62.172L320.237 56.7017C320.237 56.7017 320.257 56.6318 320.282 56.6191L329.705 51.1743H329.699Z" fill="white"/>
<path opacity="0.46" d="M329.699 50.4756C329.699 50.4756 329.737 50.4756 329.749 50.4819L339.16 55.9204C339.16 55.9204 339.223 55.9903 339.198 56.003C339.198 56.003 329.73 61.4732 329.699 61.4732L320.231 56.003C320.231 56.003 320.25 55.9331 320.269 55.9204L329.692 50.4756H329.699Z" fill="white"/>
<path opacity="0.45" d="M329.699 49.77C329.699 49.77 329.737 49.77 329.749 49.7764L339.16 55.2148C339.16 55.2148 339.223 55.2847 339.198 55.2974C339.198 55.2974 329.737 60.7677 329.699 60.7677L320.237 55.2974C320.237 55.2974 320.257 55.2275 320.276 55.2148L329.699 49.77Z" fill="white"/>
<path opacity="0.45" d="M329.699 49.0713C329.699 49.0713 329.737 49.0713 329.749 49.0776L339.16 54.5161C339.16 54.5161 339.223 54.586 339.198 54.5987C339.198 54.5987 329.737 60.0689 329.699 60.0689L320.237 54.5987C320.237 54.5987 320.257 54.5288 320.276 54.5161L329.699 49.0713Z" fill="white"/>
<path opacity="0.44" d="M329.699 48.3662C329.699 48.3662 329.737 48.3662 329.749 48.3726L339.16 53.811C339.16 53.811 339.223 53.8809 339.198 53.8936C339.198 53.8936 329.737 59.3638 329.699 59.3638L320.237 53.8936C320.237 53.8936 320.25 53.8237 320.276 53.811L329.699 48.3662Z" fill="white"/>
<path opacity="0.43" d="M329.699 47.6611C329.699 47.6611 329.737 47.6611 329.749 47.6675L339.16 53.1059C339.16 53.1059 339.223 53.1758 339.198 53.1885C339.198 53.1885 329.737 58.6588 329.705 58.6588L320.244 53.1885C320.244 53.1885 320.257 53.1187 320.282 53.1059L329.705 47.6611H329.699Z" fill="white"/>
<path opacity="0.42" d="M329.699 46.9619C329.699 46.9619 329.737 46.9619 329.749 46.9683L339.16 52.4067C339.16 52.4067 339.223 52.4766 339.198 52.4893C339.198 52.4893 329.737 57.9596 329.705 57.9596L320.244 52.4893C320.244 52.4893 320.257 52.4194 320.282 52.4067L329.705 46.9619H329.699Z" fill="white"/>
<path opacity="0.41" d="M329.699 46.2568C329.699 46.2568 329.737 46.2568 329.749 46.2632L339.16 51.7017C339.16 51.7017 339.223 51.7715 339.198 51.7842C339.198 51.7842 329.737 57.2545 329.705 57.2545L320.244 51.7842C320.244 51.7842 320.257 51.7144 320.282 51.7017L329.705 46.2568H329.699Z" fill="white"/>
<path opacity="0.4" d="M329.699 45.5581C329.699 45.5581 329.737 45.5581 329.749 45.5645L339.16 51.0029C339.16 51.0029 339.217 51.0728 339.198 51.0855C339.198 51.0855 329.743 56.5494 329.705 56.5494L320.25 51.0855C320.25 51.0855 320.263 51.0156 320.288 51.0029L329.711 45.5581H329.699Z" fill="white"/>
<path opacity="0.4" d="M329.699 44.8525C329.699 44.8525 329.737 44.8525 329.749 44.8589L339.16 50.2974C339.16 50.2974 339.217 50.3672 339.192 50.3799C339.192 50.3799 329.737 55.8438 329.699 55.8438L320.244 50.3799C320.244 50.3799 320.257 50.3101 320.282 50.2974L329.705 44.8525H329.699Z" fill="white"/>
<path opacity="0.39" d="M329.699 44.1475C329.699 44.1475 329.737 44.1475 329.749 44.1538L339.16 49.5923C339.16 49.5923 339.217 49.6622 339.192 49.6812C339.192 49.6812 329.737 55.1451 329.699 55.1451L320.244 49.6812C320.244 49.6812 320.25 49.6113 320.276 49.5923L329.699 44.1475Z" fill="white"/>
<path opacity="0.38" d="M329.699 43.4487C329.699 43.4487 329.737 43.4487 329.749 43.4551L339.16 48.8935C339.16 48.8935 339.217 48.9634 339.192 48.9825C339.192 48.9825 329.737 54.4464 329.699 54.4464L320.244 48.9825C320.244 48.9825 320.25 48.9126 320.276 48.8935L329.699 43.4487Z" fill="white"/>
<path opacity="0.37" d="M329.699 42.7437C329.699 42.7437 329.737 42.7437 329.749 42.75L339.16 48.1885C339.16 48.1885 339.217 48.2584 339.192 48.2774C339.192 48.2774 329.737 53.7413 329.699 53.7413L320.244 48.2774C320.244 48.2774 320.25 48.2075 320.276 48.1885L329.699 42.7437Z" fill="white"/>
<path opacity="0.36" d="M329.699 42.0444C329.699 42.0444 329.737 42.0444 329.749 42.0508L339.16 47.4892C339.16 47.4892 339.217 47.5591 339.192 47.5782C339.192 47.5782 329.737 53.0421 329.699 53.0421L320.244 47.5782C320.244 47.5782 320.244 47.5083 320.276 47.4892L329.699 42.0444Z" fill="white"/>
<path opacity="0.36" d="M329.699 41.3394C329.699 41.3394 329.737 41.3394 329.749 41.3457L339.16 46.7842C339.16 46.7842 339.217 46.8541 339.192 46.8731C339.192 46.8731 329.743 52.337 329.699 52.337L320.25 46.8731C320.25 46.8731 320.25 46.8032 320.282 46.7842L329.699 41.3394Z" fill="white"/>
<path opacity="0.35" d="M329.699 40.6343C329.699 40.6343 329.737 40.6343 329.749 40.6343L339.16 46.0727C339.16 46.0727 339.217 46.1426 339.192 46.1617C339.192 46.1617 329.743 51.6256 329.699 51.6256L320.25 46.1617C320.25 46.1617 320.25 46.0918 320.282 46.0727L329.699 40.6279V40.6343Z" fill="white"/>
<path opacity="0.34" d="M329.699 39.9351C329.699 39.9351 329.737 39.9351 329.749 39.9351L339.16 45.3735C339.16 45.3735 339.217 45.4434 339.192 45.4625C339.192 45.4625 329.743 50.9263 329.699 50.9263L320.25 45.4625C320.25 45.4625 320.25 45.3926 320.282 45.3735L329.699 39.9287V39.9351Z" fill="white"/>
<path opacity="0.33" d="M329.699 39.23C329.699 39.23 329.737 39.23 329.749 39.23L339.16 44.6684C339.16 44.6684 339.217 44.7383 339.192 44.7574C339.192 44.7574 329.743 50.2213 329.699 50.2213L320.25 44.7574C320.25 44.7574 320.25 44.6812 320.282 44.6684L329.699 39.2236V39.23Z" fill="white"/>
<path opacity="0.32" d="M329.699 38.5313C329.699 38.5313 329.737 38.5313 329.749 38.5313L339.16 43.9697C339.16 43.9697 339.217 44.046 339.185 44.0587C339.185 44.0587 329.737 49.5225 329.699 49.5225L320.25 44.0587C320.25 44.0587 320.25 43.9824 320.276 43.9697L329.692 38.5249L329.699 38.5313Z" fill="white"/>
<path opacity="0.31" d="M329.699 37.8262C329.699 37.8262 329.737 37.8262 329.749 37.8262L339.16 43.2646C339.16 43.2646 339.217 43.3409 339.185 43.3536C339.185 43.3536 329.737 48.8111 329.699 48.8111L320.25 43.3536C320.25 43.3536 320.25 43.2773 320.276 43.2646L329.692 37.8198L329.699 37.8262Z" fill="white"/>
<path opacity="0.31" d="M329.692 37.1206C329.692 37.1206 329.73 37.1206 329.743 37.1206L339.154 42.5591C339.154 42.5591 339.211 42.6353 339.179 42.648C339.179 42.648 329.737 48.1055 329.692 48.1055L320.25 42.648C320.25 42.648 320.25 42.5718 320.276 42.5591L329.692 37.1143V37.1206Z" fill="white"/>
<path opacity="0.3" d="M329.692 36.4219C329.692 36.4219 329.73 36.4219 329.743 36.4219L339.154 41.8603C339.154 41.8603 339.211 41.9366 339.179 41.9493C339.179 41.9493 329.737 47.4068 329.692 47.4068L320.25 41.9493C320.25 41.9493 320.25 41.873 320.276 41.8603L329.692 36.4155V36.4219Z" fill="white"/>
<path opacity="0.29" d="M329.692 35.7168C329.692 35.7168 329.73 35.7168 329.743 35.7168L339.154 41.1553C339.154 41.1553 339.211 41.2315 339.179 41.2442C339.179 41.2442 329.737 46.7017 329.692 46.7017L320.25 41.2442C320.25 41.2442 320.25 41.168 320.276 41.1553L329.692 35.7104V35.7168Z" fill="white"/>
<path opacity="0.28" d="M329.692 35.0176C329.692 35.0176 329.73 35.0176 329.743 35.0176L339.154 40.456C339.154 40.456 339.211 40.5323 339.179 40.545C339.179 40.545 329.737 46.0025 329.692 46.0025L320.25 40.545C320.25 40.545 320.25 40.4688 320.276 40.456L329.692 35.0112V35.0176Z" fill="white"/>
<path opacity="0.27" d="M329.692 34.3125C329.692 34.3125 329.73 34.3125 329.743 34.3125L339.154 39.751C339.154 39.751 339.211 39.8272 339.179 39.8463C339.179 39.8463 329.737 45.3038 329.692 45.3038L320.25 39.8463C320.25 39.8463 320.25 39.77 320.276 39.751L329.692 34.3062V34.3125Z" fill="white"/>
<path opacity="0.26" d="M329.692 33.6074C329.692 33.6074 329.73 33.6074 329.749 33.6074L339.16 39.0459C339.16 39.0459 339.211 39.1221 339.185 39.1412C339.185 39.1412 329.743 44.5987 329.699 44.5987L320.256 39.1412C320.256 39.1412 320.25 39.0649 320.282 39.0459L329.699 33.6011L329.692 33.6074Z" fill="white"/>
<path opacity="0.26" d="M329.692 32.9082C329.692 32.9082 329.73 32.9082 329.749 32.9082L339.16 38.3467C339.16 38.3467 339.211 38.4229 339.185 38.442C339.185 38.442 329.749 43.8995 329.699 43.8995L320.263 38.442C320.263 38.442 320.256 38.3657 320.288 38.3467L329.705 32.9019L329.692 32.9082Z" fill="white"/>
<path opacity="0.25" d="M329.692 32.2031C329.692 32.2031 329.73 32.2031 329.749 32.2031L339.16 37.6416C339.16 37.6416 339.211 37.7178 339.179 37.7369C339.179 37.7369 329.743 43.1944 329.692 43.1944L320.257 37.7369C320.257 37.7369 320.25 37.6607 320.276 37.6416L329.692 32.1968V32.2031Z" fill="white"/>
<path opacity="0.24" d="M329.692 31.5044C329.692 31.5044 329.73 31.5044 329.75 31.5044L339.16 36.9429C339.16 36.9429 339.211 37.0191 339.179 37.0382C339.179 37.0382 329.743 42.4957 329.692 42.4957L320.257 37.0382C320.257 37.0382 320.244 36.9619 320.276 36.9429L329.692 31.498V31.5044Z" fill="white"/>
<path opacity="0.23" d="M329.692 30.7993C329.692 30.7993 329.73 30.7993 329.749 30.7993L339.16 36.2378C339.192 36.2568 339.211 36.314 339.179 36.3331C339.179 36.3331 329.743 41.7906 329.692 41.7906L320.256 36.3331C320.225 36.314 320.244 36.2568 320.276 36.2378L329.692 30.793V30.7993Z" fill="white"/>
<path opacity="0.22" d="M329.692 30.0938C329.692 30.0938 329.73 30.0938 329.75 30.0938L339.16 35.5322C339.192 35.5513 339.211 35.6085 339.179 35.6275C339.179 35.6275 329.743 41.0787 329.699 41.0787L320.263 35.6275C320.231 35.6085 320.25 35.5513 320.282 35.5322L329.699 30.0874L329.692 30.0938Z" fill="white"/>
<path opacity="0.21" d="M329.692 29.395C329.692 29.395 329.73 29.395 329.75 29.395L339.16 34.8335C339.192 34.8525 339.211 34.9097 339.179 34.9288C339.179 34.9288 329.743 40.38 329.699 40.38L320.263 34.9288C320.231 34.9097 320.25 34.8525 320.282 34.8335L329.699 29.3887L329.692 29.395Z" fill="white"/>
<path opacity="0.21" d="M329.692 28.6899C329.692 28.6899 329.73 28.6899 329.75 28.6899L339.16 34.1284C339.192 34.1475 339.211 34.2046 339.179 34.2237C339.179 34.2237 329.743 39.6749 329.699 39.6749L320.263 34.2237C320.231 34.2046 320.25 34.1475 320.282 34.1284L329.699 28.6836L329.692 28.6899Z" fill="white"/>
<path opacity="0.2" d="M329.692 27.9907C329.692 27.9907 329.73 27.9907 329.749 27.9907L339.16 33.4292C339.192 33.4483 339.211 33.5054 339.179 33.5245C339.179 33.5245 329.749 38.9757 329.699 38.9757L320.269 33.5245C320.237 33.5054 320.256 33.4483 320.288 33.4292L329.705 27.9844L329.692 27.9907Z" fill="white"/>
<path opacity="0.19" d="M329.692 27.2856C329.692 27.2856 329.73 27.2856 329.749 27.2856L339.16 32.7241C339.192 32.7432 339.211 32.8003 339.179 32.8194C339.179 32.8194 329.749 38.2706 329.699 38.2706L320.269 32.8194C320.237 32.8003 320.25 32.7432 320.288 32.7241L329.705 27.2856H329.692Z" fill="white"/>
<path opacity="0.18" d="M329.692 26.5806C329.692 26.5806 329.73 26.5806 329.749 26.5806L339.16 32.019C339.192 32.0381 339.211 32.0953 339.179 32.1143C339.179 32.1143 329.749 37.5655 329.699 37.5655L320.269 32.1143C320.237 32.0953 320.25 32.0381 320.288 32.019L329.699 26.5806H329.692Z" fill="white"/>
<path opacity="0.17" d="M329.692 25.8818C329.692 25.8818 329.73 25.8818 329.75 25.8818L339.16 31.3203C339.192 31.3394 339.211 31.3965 339.173 31.4156C339.173 31.4156 329.743 36.8668 329.692 36.8668L320.263 31.4156C320.231 31.3965 320.244 31.3394 320.276 31.3203L329.686 25.8818H329.692Z" fill="white"/>
<path opacity="0.17" d="M329.692 25.1767C329.692 25.1767 329.73 25.1703 329.75 25.1767L339.16 30.6151C339.192 30.6342 339.211 30.6914 339.173 30.7168C339.173 30.7168 329.743 36.1679 329.692 36.1679L320.263 30.7168C320.231 30.6977 320.244 30.6405 320.276 30.6151L329.686 25.1767H329.692Z" fill="white"/>
<path opacity="0.16" d="M329.692 24.4774C329.692 24.4774 329.73 24.4711 329.75 24.4774L339.16 29.9159C339.192 29.935 339.211 29.9921 339.173 30.0175C339.173 30.0175 329.743 35.4687 329.692 35.4687L320.263 30.0175C320.225 29.9985 320.244 29.9413 320.276 29.9159L329.686 24.4774H329.692Z" fill="white"/>
<path opacity="0.15" d="M329.692 23.7724C329.692 23.7724 329.73 23.766 329.749 23.7724L339.16 29.2108C339.198 29.2299 339.211 29.2871 339.173 29.3125C339.173 29.3125 329.749 34.7636 329.692 34.7636L320.269 29.3125C320.231 29.2934 320.244 29.2362 320.282 29.2108L329.692 23.7724Z" fill="white"/>
<path opacity="0.14" d="M329.692 23.0673C329.692 23.0673 329.73 23.0609 329.749 23.0673L339.16 28.5057C339.198 28.5248 339.211 28.582 339.173 28.6074C339.173 28.6074 329.749 34.0586 329.692 34.0586L320.269 28.6074C320.231 28.5883 320.244 28.5312 320.282 28.5057L329.692 23.0673Z" fill="white"/>
<path opacity="0.13" d="M329.692 22.3681C329.692 22.3681 329.737 22.3617 329.749 22.3681L339.16 27.8065C339.198 27.8256 339.204 27.8891 339.173 27.9082C339.173 27.9082 329.749 33.353 329.692 33.353L320.269 27.9082C320.231 27.8891 320.244 27.8256 320.282 27.8065L329.692 22.3681Z" fill="white"/>
<path opacity="0.12" d="M329.692 21.663C329.692 21.663 329.737 21.6566 329.749 21.663L339.16 27.1014C339.198 27.1205 339.204 27.184 339.173 27.2031C339.173 27.2031 329.749 32.6479 329.699 32.6479L320.276 27.2031C320.237 27.184 320.25 27.1205 320.288 27.1014L329.699 21.663H329.692Z" fill="white"/>
<path opacity="0.12" d="M329.692 20.9642C329.692 20.9642 329.737 20.9579 329.749 20.9642L339.16 26.4027C339.198 26.4218 339.204 26.4853 339.173 26.5044C339.173 26.5044 329.749 31.9492 329.699 31.9492L320.276 26.5044C320.237 26.4853 320.25 26.4218 320.288 26.4027L329.699 20.9642H329.692Z" fill="white"/>
<path opacity="0.11" d="M329.686 20.2592C329.686 20.2592 329.73 20.2528 329.743 20.2592L339.154 25.6976C339.192 25.7167 339.198 25.7802 339.16 25.7993C339.16 25.7993 329.737 31.2441 329.686 31.2441L320.263 25.7993C320.225 25.7802 320.237 25.7167 320.269 25.6976L329.68 20.2592H329.686Z" fill="white"/>
<path opacity="0.1" d="M329.686 19.5536C329.686 19.5536 329.73 19.5473 329.743 19.5536L339.154 24.9921C339.192 25.0111 339.198 25.0747 339.16 25.0937C339.16 25.0937 329.743 30.5385 329.686 30.5385L320.269 25.0937C320.231 25.0747 320.237 25.0111 320.276 24.9921L329.686 19.5536Z" fill="white"/>
<path opacity="0.09" d="M329.686 18.8549C329.686 18.8549 329.73 18.8485 329.743 18.8549L339.154 24.2933C339.192 24.3124 339.198 24.3759 339.16 24.395C339.16 24.395 329.743 29.8398 329.686 29.8398L320.269 24.395C320.231 24.3759 320.237 24.3124 320.276 24.2933L329.686 18.8549Z" fill="white"/>
<path opacity="0.08" d="M329.686 18.1498C329.686 18.1498 329.73 18.1434 329.743 18.1498L339.154 23.5883C339.192 23.6073 339.198 23.6709 339.16 23.6899C339.16 23.6899 329.743 29.1347 329.686 29.1347L320.269 23.6899C320.231 23.6709 320.237 23.6073 320.276 23.5883L329.686 18.1498Z" fill="white"/>
<path opacity="0.07" d="M329.686 17.4506C329.686 17.4506 329.73 17.4442 329.743 17.4506L339.154 22.889C339.192 22.9145 339.198 22.9716 339.16 22.9907C339.16 22.9907 329.743 28.4355 329.686 28.4355L320.269 22.9907C320.231 22.9653 320.237 22.9081 320.276 22.889L329.686 17.4506Z" fill="white"/>
<path opacity="0.07" d="M329.686 16.7455C329.686 16.7455 329.73 16.7391 329.749 16.7455L339.16 22.184C339.198 22.2094 339.204 22.2666 339.16 22.2856C339.16 22.2856 329.743 27.7304 329.686 27.7304L320.269 22.2856C320.231 22.2602 320.237 22.203 320.269 22.184L329.68 16.7455H329.686Z" fill="white"/>
<path opacity="0.06" d="M329.686 16.0467C329.686 16.0467 329.73 16.034 329.749 16.0467L339.16 21.4851C339.198 21.5105 339.204 21.5677 339.16 21.5868C339.16 21.5868 329.743 27.0316 329.686 27.0316L320.269 21.5868C320.231 21.5614 320.237 21.5042 320.269 21.4851L329.68 16.0467H329.686Z" fill="white"/>
<path opacity="0.05" d="M329.686 15.3416C329.686 15.3416 329.73 15.3289 329.75 15.3416L339.16 20.78C339.198 20.8055 339.204 20.8626 339.16 20.8881C339.16 20.8881 329.749 26.3265 329.686 26.3265L320.276 20.8881C320.237 20.8626 320.237 20.8055 320.276 20.78L329.686 15.3416Z" fill="white"/>
<path opacity="0.04" d="M329.686 14.636C329.686 14.636 329.73 14.6233 329.749 14.636L339.154 20.0745C339.192 20.0999 339.198 20.1571 339.154 20.1825C339.154 20.1825 329.743 25.6209 329.68 25.6209L320.269 20.1825C320.231 20.1571 320.231 20.0999 320.269 20.0745L329.68 14.636H329.686Z" fill="white"/>
<path opacity="0.03" d="M329.686 13.9373C329.686 13.9373 329.73 13.9246 329.749 13.9373L339.154 19.3758C339.192 19.4012 339.198 19.4583 339.154 19.4838C339.154 19.4838 329.743 24.9222 329.68 24.9222L320.269 19.4838C320.231 19.4583 320.231 19.4012 320.269 19.3758L329.68 13.9373H329.686Z" fill="white"/>
<path opacity="0.02" d="M329.686 13.2322C329.686 13.2322 329.73 13.2195 329.749 13.2322L339.154 18.6707C339.192 18.6961 339.198 18.7533 339.154 18.7787C339.154 18.7787 329.743 24.2171 329.68 24.2171L320.269 18.7787C320.231 18.7533 320.231 18.6961 320.269 18.6707L329.68 13.2322H329.686Z" fill="white"/>
<path opacity="0.02" d="M329.686 12.5335C329.686 12.5335 329.73 12.5208 329.75 12.5335L339.154 17.9719C339.192 17.9974 339.198 18.0545 339.154 18.0799C339.154 18.0799 329.743 23.5184 329.686 23.5184L320.276 18.0799C320.237 18.0545 320.237 17.9974 320.276 17.9719L329.686 12.5335Z" fill="white"/>
</g>
<path d="M329.718 118.698C329.635 118.698 329.553 118.679 329.477 118.634C329.324 118.546 329.235 118.387 329.235 118.215V107.243C329.235 107.071 329.331 106.906 329.477 106.824L339.008 101.315C339.16 101.226 339.344 101.226 339.496 101.315C339.649 101.404 339.737 101.563 339.737 101.735V112.707C339.737 112.878 339.642 113.044 339.496 113.126L329.965 118.634C329.889 118.679 329.807 118.698 329.724 118.698H329.718ZM330.2 107.522V117.37L338.76 112.421V102.573L330.2 107.522Z" fill="white"/>
<path d="M329.718 118.698C329.635 118.698 329.553 118.679 329.477 118.634L319.946 113.126C319.793 113.037 319.704 112.878 319.704 112.707V101.735C319.704 101.563 319.8 101.398 319.946 101.315C320.098 101.226 320.282 101.226 320.434 101.315L329.965 106.824C330.118 106.913 330.206 107.071 330.206 107.243V118.215C330.206 118.387 330.111 118.552 329.965 118.634C329.889 118.679 329.807 118.698 329.724 118.698H329.718ZM320.669 112.421L329.229 117.37V107.522L320.669 102.573V112.421Z" fill="white"/>
<path d="M329.718 107.726C329.635 107.726 329.553 107.707 329.477 107.662L319.946 102.154C319.793 102.065 319.704 101.906 319.704 101.735C319.704 101.563 319.8 101.398 319.946 101.315L329.477 95.8069C329.629 95.718 329.813 95.718 329.965 95.8069L339.496 101.315C339.649 101.404 339.737 101.563 339.737 101.735C339.737 101.906 339.642 102.071 339.496 102.154L329.965 107.662C329.889 107.707 329.807 107.726 329.724 107.726H329.718ZM321.158 101.735L329.718 106.684L338.278 101.735L329.718 96.7854L321.158 101.735Z" fill="white"/>
<g opacity="0.5">
<path d="M338.951 113.246C338.786 113.246 338.621 113.157 338.532 113.005C338.475 112.91 338.456 112.802 338.468 112.7L329.718 107.643L320.428 113.011C320.193 113.145 319.901 113.069 319.762 112.833C319.628 112.598 319.704 112.306 319.939 112.166L329.47 106.658C329.623 106.569 329.807 106.569 329.959 106.658L339.49 112.166C339.642 112.255 339.731 112.414 339.731 112.586C339.731 112.757 339.636 112.922 339.49 113.005L339.192 113.177C339.116 113.221 339.033 113.24 338.951 113.24V113.246Z" fill="white"/>
</g>
<g opacity="0.5">
<path d="M329.718 107.56C329.451 107.56 329.229 107.344 329.229 107.071V96.2197C329.229 95.9528 329.445 95.7305 329.718 95.7305C329.991 95.7305 330.206 95.9465 330.206 96.2197V107.071C330.206 107.338 329.991 107.56 329.718 107.56Z" fill="white"/>
</g>
<g style="mix-blend-mode:screen" opacity="0.2">
<path d="M438.462 203.604L428.931 209.118L419.399 203.604L428.931 198.095L438.462 203.604Z" fill="white"/>
<path opacity="0.99" d="M438.462 202.841L428.931 208.35L419.399 202.841L428.931 197.327L438.462 202.841Z" fill="white"/>
<path opacity="0.98" d="M438.462 202.072L428.931 207.581L419.399 202.072L428.931 196.564L438.462 202.072Z" fill="white"/>
<path opacity="0.96" d="M438.462 201.304L428.931 206.812L419.399 201.304L428.931 195.795L438.462 201.304Z" fill="white"/>
<path opacity="0.95" d="M438.462 200.535L428.931 206.043L419.399 200.535L428.931 195.026L438.462 200.535Z" fill="white"/>
<path opacity="0.94" d="M438.462 199.766L428.931 205.281L419.399 199.766L428.931 194.258L438.462 199.766Z" fill="white"/>
<path opacity="0.93" d="M438.462 199.003L428.931 204.512L419.399 199.003L428.931 193.489L438.462 199.003Z" fill="white"/>
<path opacity="0.91" d="M438.462 198.235L428.931 203.743L419.399 198.235L428.931 192.727L438.462 198.235Z" fill="white"/>
<path opacity="0.9" d="M438.462 197.466L428.931 202.975L419.399 197.466L428.931 191.958L438.462 197.466Z" fill="white"/>
<path opacity="0.89" d="M438.462 196.697L428.931 202.206L419.399 196.697L428.931 191.189L438.462 196.697Z" fill="white"/>
<path opacity="0.88" d="M438.462 195.929L428.931 201.443L419.399 195.929L428.931 190.42L438.462 195.929Z" fill="white"/>
<path opacity="0.86" d="M438.462 195.166L428.931 200.674L419.399 195.166L428.931 189.651L438.462 195.166Z" fill="white"/>
<path opacity="0.85" d="M438.462 194.398L428.931 199.906L419.399 194.398L428.931 188.889L438.462 194.398Z" fill="white"/>
<path opacity="0.84" d="M438.462 193.629L428.931 199.137L419.399 193.629L428.931 188.121L438.462 193.629Z" fill="white"/>
<path opacity="0.83" d="M438.462 192.86L428.931 198.368L419.399 192.86L428.931 187.352L438.462 192.86Z" fill="white"/>
<path opacity="0.81" d="M438.462 192.091L428.931 197.606L419.399 192.091L428.931 186.583L438.462 192.091Z" fill="white"/>
<path opacity="0.8" d="M438.462 191.329L428.931 196.837L419.399 191.329L428.931 185.814L438.462 191.329Z" fill="white"/>
<path opacity="0.79" d="M438.462 190.56L428.931 196.068L419.399 190.56L428.931 185.052L438.462 190.56Z" fill="white"/>
<path opacity="0.78" d="M438.462 189.792L428.931 195.3L419.399 189.792L428.931 184.283L438.462 189.792Z" fill="white"/>
<path opacity="0.77" d="M438.462 189.022L428.931 194.531L419.399 189.022L428.931 183.514L438.462 189.022Z" fill="white"/>
<path opacity="0.75" d="M438.462 188.254L428.931 193.769L419.399 188.254L428.931 182.746L438.462 188.254Z" fill="white"/>
<path opacity="0.74" d="M438.462 187.491L428.931 193L419.399 187.491L428.931 181.977L438.462 187.491Z" fill="white"/>
<path opacity="0.73" d="M438.462 186.723L428.931 192.231L419.399 186.723L428.931 181.214L438.462 186.723Z" fill="white"/>
<path opacity="0.72" d="M438.462 185.954L428.931 191.462L419.399 185.954L428.931 180.446L438.462 185.954Z" fill="white"/>
<path opacity="0.7" d="M438.462 185.185L428.931 190.693L419.399 185.185L428.931 179.677L438.462 185.185Z" fill="white"/>
<path opacity="0.69" d="M438.462 184.417L428.931 189.931L419.399 184.417L428.931 178.908L438.462 184.417Z" fill="white"/>
<path opacity="0.68" d="M438.462 183.654L428.931 189.162L419.399 183.654L428.931 178.139L438.462 183.654Z" fill="white"/>
<path opacity="0.67" d="M438.462 182.885L428.931 188.394L419.399 182.885L428.931 177.377L438.462 182.885Z" fill="white"/>
<path opacity="0.65" d="M438.462 182.117L428.931 187.625L419.399 182.117L428.931 176.608L438.462 182.117Z" fill="white"/>
<path opacity="0.64" d="M438.462 181.348L428.931 186.856L419.399 181.348L428.931 175.839L438.462 181.348Z" fill="white"/>
<path opacity="0.63" d="M438.462 180.579L428.931 186.094L419.399 180.579L428.931 175.071L438.462 180.579Z" fill="white"/>
<path opacity="0.62" d="M438.462 179.816L428.931 185.325L419.399 179.816L428.931 174.302L438.462 179.816Z" fill="white"/>
<path opacity="0.6" d="M438.462 179.048L428.931 184.556L419.399 179.048L428.931 173.54L438.462 179.048Z" fill="white"/>
<path opacity="0.59" d="M438.462 178.279L428.931 183.788L419.399 178.279L428.931 172.771L438.462 178.279Z" fill="white"/>
<path opacity="0.58" d="M438.462 177.51L428.931 183.025L419.399 177.51L428.931 172.002L438.462 177.51Z" fill="white"/>
<path opacity="0.57" d="M438.462 176.742L428.931 182.256L419.399 176.742L428.931 171.233L438.462 176.742Z" fill="white"/>
<path opacity="0.56" d="M438.462 175.979L428.931 181.487L419.399 175.979L428.931 170.464L438.462 175.979Z" fill="white"/>
<path opacity="0.54" d="M438.462 175.21L428.931 180.719L419.399 175.21L428.931 169.702L438.462 175.21Z" fill="white"/>
<path opacity="0.53" d="M438.462 174.441L428.931 179.95L419.399 174.441L428.931 168.933L438.462 174.441Z" fill="white"/>
<path opacity="0.52" d="M438.462 173.673L428.931 179.188L419.399 173.673L428.931 168.165L438.462 173.673Z" fill="white"/>
<path opacity="0.51" d="M438.462 172.911L428.931 178.419L419.399 172.911L428.931 167.396L438.462 172.911Z" fill="white"/>
<path opacity="0.49" d="M438.462 172.142L428.931 177.65L419.399 172.142L428.931 166.627L438.462 172.142Z" fill="white"/>
<path opacity="0.48" d="M438.462 171.373L428.931 176.881L419.399 171.373L428.931 165.865L438.462 171.373Z" fill="white"/>
<path opacity="0.47" d="M438.462 170.604L428.931 176.112L419.399 170.604L428.931 165.096L438.462 170.604Z" fill="white"/>
<path opacity="0.46" d="M438.462 169.836L428.931 175.35L419.399 169.836L428.931 164.327L438.462 169.836Z" fill="white"/>
<path opacity="0.44" d="M438.462 169.073L428.931 174.582L419.399 169.073L428.931 163.559L438.462 169.073Z" fill="white"/>
<path opacity="0.43" d="M438.462 168.304L428.931 173.813L419.399 168.304L428.931 162.796L438.462 168.304Z" fill="white"/>
<path opacity="0.42" d="M438.462 167.536L428.931 173.044L419.399 167.536L428.931 162.027L438.462 167.536Z" fill="white"/>
<path opacity="0.41" d="M438.462 166.767L428.931 172.275L419.399 166.767L428.931 161.258L438.462 166.767Z" fill="white"/>
<path opacity="0.4" d="M438.462 165.998L428.931 171.513L419.399 165.998L428.931 160.49L438.462 165.998Z" fill="white"/>
<path opacity="0.38" d="M438.462 165.236L428.931 170.744L419.399 165.236L428.931 159.721L438.462 165.236Z" fill="white"/>
<path opacity="0.37" d="M438.462 164.467L428.931 169.975L419.399 164.467L428.931 158.958L438.462 164.467Z" fill="white"/>
<path opacity="0.36" d="M438.462 163.698L428.931 169.207L419.399 163.698L428.931 158.19L438.462 163.698Z" fill="white"/>
<path opacity="0.35" d="M438.462 162.929L428.931 168.438L419.399 162.929L428.931 157.421L438.462 162.929Z" fill="white"/>
<path opacity="0.33" d="M438.462 162.161L428.931 167.675L419.399 162.161L428.931 156.652L438.462 162.161Z" fill="white"/>
<path opacity="0.32" d="M438.462 161.398L428.931 166.907L419.399 161.398L428.931 155.884L438.462 161.398Z" fill="white"/>
<path opacity="0.31" d="M438.462 160.629L428.931 166.138L419.399 160.629L428.931 155.121L438.462 160.629Z" fill="white"/>
<path opacity="0.3" d="M438.462 159.861L428.931 165.369L419.399 159.861L428.931 154.353L438.462 159.861Z" fill="white"/>
<path opacity="0.28" d="M438.462 159.092L428.931 164.6L419.399 159.092L428.931 153.583L438.462 159.092Z" fill="white"/>
<path opacity="0.27" d="M438.462 158.323L428.931 163.838L419.399 158.323L428.931 152.815L438.462 158.323Z" fill="white"/>
<path opacity="0.26" d="M438.462 157.561L428.931 163.069L419.399 157.561L428.931 152.046L438.462 157.561Z" fill="white"/>
<path opacity="0.25" d="M438.462 156.792L428.931 162.3L419.399 156.792L428.931 151.284L438.462 156.792Z" fill="white"/>
<path opacity="0.23" d="M438.462 156.023L428.931 161.532L419.399 156.023L428.931 150.515L438.462 156.023Z" fill="white"/>
<path opacity="0.22" d="M438.462 155.254L428.931 160.763L419.399 155.254L428.931 149.746L438.462 155.254Z" fill="white"/>
<path opacity="0.21" d="M438.462 154.486L428.931 160.001L419.399 154.486L428.931 148.978L438.462 154.486Z" fill="white"/>
<path opacity="0.2" d="M438.462 153.723L428.931 159.232L419.399 153.723L428.931 148.208L438.462 153.723Z" fill="white"/>
<path opacity="0.19" d="M438.462 152.955L428.931 158.463L419.399 152.955L428.931 147.446L438.462 152.955Z" fill="white"/>
<path opacity="0.17" d="M438.462 152.186L428.931 157.694L419.399 152.186L428.931 146.678L438.462 152.186Z" fill="white"/>
<path opacity="0.16" d="M438.462 151.417L428.931 156.925L419.399 151.417L428.931 145.909L438.462 151.417Z" fill="white"/>
<path opacity="0.15" d="M438.462 150.648L428.931 156.163L419.399 150.648L428.931 145.14L438.462 150.648Z" fill="white"/>
<path opacity="0.14" d="M438.462 149.886L428.931 155.394L419.399 149.886L428.931 144.371L438.462 149.886Z" fill="white"/>
<path opacity="0.12" d="M438.462 149.117L428.931 154.626L419.399 149.117L428.931 143.609L438.462 149.117Z" fill="white"/>
<path opacity="0.11" d="M438.462 148.349L428.931 153.857L419.399 148.349L428.931 142.84L438.462 148.349Z" fill="white"/>
<path opacity="0.1" d="M438.462 147.58L428.931 153.088L419.399 147.58L428.931 142.071L438.462 147.58Z" fill="white"/>
<path opacity="0.09" d="M438.462 146.811L428.931 152.326L419.399 146.811L428.931 141.303L438.462 146.811Z" fill="white"/>
<path opacity="0.07" d="M438.462 146.048L428.931 151.557L419.399 146.048L428.931 140.534L438.462 146.048Z" fill="white"/>
<path opacity="0.06" d="M438.462 145.28L428.931 150.788L419.399 145.28L428.931 139.771L438.462 145.28Z" fill="white"/>
<path opacity="0.05" d="M438.462 144.511L428.931 150.02L419.399 144.511L428.931 139.003L438.462 144.511Z" fill="white"/>
<path opacity="0.04" d="M438.462 143.742L428.931 149.257L419.399 143.742L428.931 138.234L438.462 143.742Z" fill="white"/>
<path opacity="0.02" d="M438.462 142.98L428.931 148.488L419.399 142.98L428.931 137.465L438.462 142.98Z" fill="white"/>
<path opacity="0.01" d="M438.462 142.211L428.931 147.719L419.399 142.211L428.931 136.696L438.462 142.211Z" fill="white"/>
</g>
<path d="M428.931 220.65C428.848 220.65 428.759 220.631 428.689 220.586C428.537 220.497 428.448 220.338 428.448 220.167V209.195C428.448 209.023 428.543 208.858 428.689 208.775L438.22 203.267C438.373 203.178 438.557 203.178 438.709 203.267C438.861 203.356 438.95 203.515 438.95 203.686V214.658C438.95 214.83 438.855 214.995 438.709 215.078L429.178 220.586C429.102 220.631 429.019 220.65 428.937 220.65H428.931ZM429.419 209.474V219.322L437.979 214.373V204.525L429.419 209.474Z" fill="#28F9EF"/>
<path d="M428.931 220.65C428.848 220.65 428.759 220.631 428.689 220.586L419.158 215.078C419.006 214.989 418.917 214.83 418.917 214.658V203.686C418.917 203.515 419.012 203.349 419.158 203.267C419.311 203.178 419.495 203.178 419.647 203.267L429.178 208.775C429.33 208.864 429.419 209.023 429.419 209.195V220.167C429.419 220.338 429.324 220.504 429.178 220.586C429.102 220.631 429.019 220.65 428.937 220.65H428.931ZM419.888 214.373L428.448 219.322V209.474L419.888 204.525V214.373Z" fill="#28F9EF"/>
<path d="M428.931 209.677C428.848 209.677 428.759 209.658 428.689 209.613L419.158 204.105C419.006 204.016 418.917 203.857 418.917 203.686C418.917 203.514 419.012 203.349 419.158 203.266L428.689 197.758C428.842 197.669 429.026 197.669 429.178 197.758L438.709 203.266C438.861 203.355 438.95 203.514 438.95 203.686C438.95 203.857 438.855 204.023 438.709 204.105L429.178 209.613C429.102 209.658 429.019 209.677 428.937 209.677H428.931ZM420.37 203.679L428.931 208.629L437.491 203.679L428.931 198.73L420.37 203.679Z" fill="#28F9EF"/>
<g opacity="0.5">
<path d="M438.163 215.192C437.992 215.192 437.833 215.103 437.745 214.95C437.687 214.855 437.668 214.747 437.681 214.645L428.931 209.588L419.641 214.957C419.406 215.09 419.114 215.014 418.974 214.779C418.841 214.544 418.917 214.251 419.152 214.112L428.683 208.603C428.835 208.514 429.019 208.514 429.172 208.603L438.703 214.112C438.855 214.201 438.944 214.359 438.944 214.531C438.944 214.703 438.849 214.868 438.703 214.95L438.404 215.122C438.328 215.166 438.246 215.185 438.163 215.185V215.192Z" fill="#28F9EF"/>
</g>
<g opacity="0.5">
<path d="M428.931 209.512C428.664 209.512 428.442 209.296 428.442 209.023V198.171C428.442 197.905 428.658 197.682 428.931 197.682C429.203 197.682 429.419 197.898 429.419 198.171V209.023C429.419 209.29 429.203 209.512 428.931 209.512Z" fill="#28F9EF"/>
</g>
</svg>
