<svg width="95" height="91" viewBox="0 0 95 91" fill="none" xmlns="http://www.w3.org/2000/svg">
<path fill-rule="evenodd" clip-rule="evenodd" d="M12.8895 40.8541H16.486V50.3571C16.486 51.6992 17.5739 52.7871 18.916 52.7871H38.9825C40.3246 52.7871 41.4126 51.6992 41.4126 50.3571V40.8541H45.0396V40.84C51.7289 40.528 57.0563 35.0059 57.0563 28.2395C57.0563 21.3333 51.5063 15.7234 44.6231 15.6264C44.1087 7.41734 37.288 0.918457 28.9491 0.918457C20.6104 0.918457 13.7895 7.41734 13.2752 15.6264C6.39196 15.7233 0.841888 21.3333 0.841888 28.2395C0.841888 35.0164 6.18582 40.545 12.8895 40.8415V40.8541ZM13.0505 37.2L13.2561 37.209H16.486V27.7423C16.486 26.4002 17.5739 25.3122 18.916 25.3122H38.9825C40.3246 25.3122 41.4126 26.4002 41.4126 27.7423V37.209H44.6533L44.8698 37.1991C49.6232 36.9772 53.4112 33.0498 53.4112 28.2395C53.4112 23.3293 49.465 19.3401 44.5719 19.2711L41.1963 19.2237L40.9851 15.8544C40.5905 9.55396 35.3513 4.56354 28.9491 4.56354C22.5471 4.56354 17.3079 9.55396 16.9132 15.8544L16.7021 19.2237L13.3265 19.2711C8.43335 19.3399 4.48697 23.3293 4.48697 28.2395C4.48697 33.0573 8.28674 36.9894 13.0505 37.2ZM20.131 37.209H37.7675V28.9573H20.131V37.209ZM37.7675 40.8723H20.131V49.142H37.7675V40.8723ZM22.689 33.5694C22.689 32.5629 23.505 31.7469 24.5116 31.7469H33.3864C34.3929 31.7469 35.2089 32.5629 35.2089 33.5694C35.2089 34.5759 34.3929 35.3919 33.3864 35.3919H24.5116C23.505 35.3919 22.689 34.5759 22.689 33.5694ZM24.5118 43.5371C23.5053 43.5371 22.6893 44.3531 22.6893 45.3597C22.6893 46.3662 23.5053 47.1822 24.5118 47.1822H33.3866C34.3931 47.1822 35.2092 46.3662 35.2092 45.3597C35.2092 44.3531 34.3931 43.5371 33.3866 43.5371H24.5118ZM59.6953 71.7005C59.6953 70.6939 60.5113 69.8779 61.5179 69.8779H70.3926C71.3994 69.8779 72.2152 70.6939 72.2152 71.7005C72.2152 72.707 71.3994 73.523 70.3926 73.523H61.5179C60.5113 73.523 59.6953 72.707 59.6953 71.7005ZM59.6955 83.4909C59.6955 82.4844 60.5116 81.6684 61.5181 81.6684H70.3931C71.3997 81.6684 72.2157 82.4844 72.2157 83.4909C72.2157 84.4975 71.3997 85.3135 70.3931 85.3135H61.5181C60.5116 85.3135 59.6955 84.4975 59.6955 83.4909ZM78.4189 78.9854H82.046V78.9713C88.7352 78.6591 94.0628 73.137 94.0628 66.3708C94.0628 59.4646 88.5128 53.8546 81.6295 53.7576C81.1153 45.5484 74.2944 39.0497 65.9556 39.0497C57.6169 39.0497 50.796 45.5484 50.2816 53.7576C43.3984 53.8546 37.8482 59.4643 37.8482 66.3708C37.8482 73.1475 43.1921 78.6763 49.8959 78.9726V78.9854H53.4924V88.4884C53.4924 89.8303 54.5803 90.9184 55.9224 90.9184H75.9888C77.3309 90.9184 78.4189 89.8303 78.4189 88.4884V78.9854ZM50.057 75.3311L50.2626 75.3401H53.4924V65.8734C53.4924 64.5312 54.5803 63.4433 55.9224 63.4433H75.9888C77.3309 63.4433 78.4189 64.5312 78.4189 65.8734V75.3401H81.6598L81.8761 75.3302C86.6295 75.1083 90.4178 71.1808 90.4178 66.3708C90.4178 61.4604 86.4714 57.4712 81.5782 57.4022L78.2026 57.3548L77.9917 53.9855C77.5968 47.6852 72.3576 42.6948 65.9556 42.6948C59.5537 42.6948 54.3142 47.6852 53.9196 53.9855L53.7084 57.3548L50.3328 57.4022C45.4397 57.4712 41.4933 61.4604 41.4933 66.3708C41.4933 71.1884 45.2931 75.1204 50.057 75.3311ZM74.7738 75.3401V67.0884H57.1375V75.3401H74.7738ZM57.1375 79.0034H74.7738V87.2734H57.1375V79.0034ZM55.5433 10.789C60.6542 6.24471 68.1111 4.76753 74.8241 7.60143C84.1305 11.5301 88.49 22.2593 84.5611 31.5656C84.2486 32.3061 83.8933 33.0149 83.4994 33.6902L82.3483 29.6247C82.0739 28.6564 81.0667 28.0936 80.098 28.3677C79.1297 28.642 78.5669 29.6495 78.841 30.6179L81.0783 38.5187C81.3524 39.4874 82.3599 40.0502 83.3283 39.7758L91.2289 37.5394C92.1973 37.2653 92.7603 36.2578 92.486 35.2894C92.2118 34.3208 91.2046 33.758 90.236 34.0321L86.969 34.957C87.3148 34.3213 87.6322 33.6632 87.9194 32.9833C92.631 21.8223 87.4025 8.95492 76.2415 4.24332C68.1852 0.842288 59.2431 2.62194 53.1213 8.06499C52.3692 8.73381 52.3016 9.8858 52.9704 10.638C53.6391 11.3902 54.7912 11.4578 55.5433 10.789Z" fill="url(#paint0_linear_1_520)"/>
<defs>
<linearGradient id="paint0_linear_1_520" x1="0.990019" y1="38.039" x2="78.1329" y2="36.5264" gradientUnits="userSpaceOnUse">
<stop stop-color="#5A4CFC"/>
<stop offset="1" stop-color="#55A3FF"/>
</linearGradient>
</defs>
</svg>
