<svg width="90" height="90" viewBox="0 0 90 90" fill="none" xmlns="http://www.w3.org/2000/svg">
<path fill-rule="evenodd" clip-rule="evenodd" d="M1.5 32.9999H9.74998L13.8 38.3999C13.9397 38.5862 14.1209 38.7374 14.3291 38.8415C14.5374 38.9457 14.7671 38.9999 15 38.9999C15.2328 38.9999 15.4625 38.9457 15.6708 38.8415C15.8791 38.7374 16.0602 38.5862 16.2 38.3999L20.25 32.9999H28.4999C28.8978 32.9999 29.2793 32.8419 29.5606 32.5606C29.8419 32.2793 29.9999 31.8977 29.9999 31.4999V1.5C29.9999 1.10217 29.8419 0.720643 29.5606 0.439339C29.2793 0.158035 28.8978 0 28.4999 0H1.5C1.10217 0 0.720643 0.158035 0.439339 0.439339C0.158035 0.720643 0 1.10217 0 1.5V31.4999C0 31.8977 0.158035 32.2793 0.439339 32.5606C0.720643 32.8419 1.10217 32.9999 1.5 32.9999ZM2.99999 2.99999H26.9999V29.9999H19.5C19.2671 29.9999 19.0374 30.0541 18.8291 30.1583C18.6209 30.2624 18.4397 30.4136 18.3 30.5999L15 34.9949L11.7 30.5999C11.5603 30.4136 11.3791 30.2624 11.1708 30.1583C10.9625 30.0541 10.7328 29.9999 10.5 29.9999H2.99999V2.99999ZM80.5498 58.0651C82.0279 56.9123 83.1091 55.3268 83.6426 53.5299C84.1761 51.733 84.1352 49.8144 83.5257 48.0418C82.9162 46.2693 81.7684 44.7312 80.2427 43.6424C78.7169 42.5536 76.8893 41.9684 75.0148 41.9684C73.1404 41.9684 71.3127 42.5536 69.787 43.6424C68.2612 44.7312 67.1135 46.2693 66.504 48.0418C65.8944 49.8144 65.8536 51.733 66.3871 53.5299C66.9206 55.3268 68.0018 56.9123 69.4798 58.0651C67.3375 58.9154 65.4147 60.2382 63.8549 61.9351L62.9999 53.8351C62.9591 53.4665 62.7832 53.1261 62.5062 52.8796C62.2292 52.633 61.8707 52.4978 61.4999 52.5001H59.9999V48.0001C59.9968 45.001 59.0947 42.0718 57.4102 39.5905C55.7257 37.1092 53.3361 35.1898 50.5499 34.0801C52.0242 32.9252 53.1015 31.3392 53.6317 29.543C54.1619 27.7468 54.1185 25.83 53.5077 24.0596C52.8968 22.2892 51.7489 20.7535 50.2239 19.6664C48.6988 18.5794 46.8727 17.9952 44.9999 17.9952C43.1271 17.9952 41.3009 18.5794 39.7759 19.6664C38.2509 20.7535 37.103 22.2892 36.4921 24.0596C35.8813 25.83 35.8379 27.7468 36.3681 29.543C36.8983 31.3392 37.9756 32.9252 39.4499 34.0801C36.6637 35.1898 34.2741 37.1092 32.5896 39.5905C30.9051 42.0718 30.003 45.001 29.9999 48.0001V52.5001H28.4999C28.1268 52.4982 27.7663 52.6355 27.489 52.8851C27.2116 53.1348 27.0372 53.4788 26.9999 53.8501L26.1899 62.0101C24.6427 60.2708 22.7045 58.9238 20.535 58.0801C22.0111 56.9263 23.0904 55.3405 23.6222 53.5439C24.1541 51.7474 24.112 49.8297 23.5018 48.0582C22.8916 46.2867 21.7438 44.7498 20.2184 43.6619C18.693 42.574 16.8661 41.9892 14.9925 41.9892C13.1189 41.9892 11.2919 42.574 9.76655 43.6619C8.24115 44.7498 7.09332 46.2867 6.48314 48.0582C5.87296 49.8297 5.83085 51.7474 6.36269 53.5439C6.89453 55.3405 7.9738 56.9263 9.44998 58.0801C6.66375 59.1897 4.27413 61.1091 2.58962 63.5904C0.905123 66.0717 0.00309493 69.001 0 72.0001V88.5C0 88.8978 0.158035 89.2794 0.439339 89.5607C0.720643 89.842 1.10217 90 1.5 90H88.4998C88.8976 90 89.2792 89.842 89.5605 89.5607C89.8418 89.2794 89.9998 88.8978 89.9998 88.5V72.0001C89.9997 68.9984 89.0991 66.0659 87.4144 63.5816C85.7297 61.0974 83.3384 59.1757 80.5498 58.0651ZM68.9998 51.0001C68.9998 49.8134 69.3517 48.6534 70.011 47.6667C70.6703 46.68 71.6074 45.911 72.7037 45.4568C73.8001 45.0027 75.0065 44.8839 76.1704 45.1154C77.3343 45.3469 78.4033 45.9184 79.2425 46.7575C80.0816 47.5966 80.653 48.6657 80.8845 49.8296C81.116 50.9934 80.9972 52.1998 80.5431 53.2962C80.089 54.3926 79.3199 55.3296 78.3332 55.9889C77.3465 56.6482 76.1865 57.0001 74.9998 57.0001C73.4085 57.0001 71.8824 56.3679 70.7572 55.2427C69.632 54.1175 68.9998 52.5914 68.9998 51.0001ZM38.9999 27.0002C38.9999 25.8135 39.3518 24.6534 40.0111 23.6667C40.6704 22.68 41.6074 21.911 42.7038 21.4569C43.8002 21.0028 45.0066 20.8839 46.1704 21.1155C47.3343 21.347 48.4034 21.9184 49.2425 22.7575C50.0816 23.5966 50.6531 24.6657 50.8846 25.8296C51.1161 26.9935 50.9973 28.1999 50.5432 29.2963C50.089 30.3926 49.32 31.3297 48.3333 31.989C47.3466 32.6483 46.1866 33.0001 44.9999 33.0001C43.4086 33.0001 41.8825 32.368 40.7573 31.2428C39.632 30.1176 38.9999 28.5915 38.9999 27.0002ZM32.9999 48.0001C32.9999 44.8175 34.2642 41.7653 36.5146 39.5148C38.7651 37.2644 41.8173 36.0001 44.9999 36.0001C48.1825 36.0001 51.2347 37.2644 53.4852 39.5148C55.7356 41.7653 56.9999 44.8175 56.9999 48.0001V52.5001H54.3899L55.4999 45.2251C55.5325 45.0101 55.518 44.7906 55.4574 44.5818C55.3967 44.373 55.2915 44.1798 55.1488 44.0158C55.0061 43.8517 54.8294 43.7206 54.6311 43.6315C54.4327 43.5425 54.2173 43.4977 53.9999 43.5001H35.9999C35.7825 43.4977 35.5671 43.5425 35.3687 43.6315C35.1704 43.7206 34.9937 43.8517 34.851 44.0158C34.7083 44.1798 34.603 44.373 34.5424 44.5818C34.4818 44.7906 34.4673 45.0101 34.4999 45.2251L35.6099 52.5001H32.9999V48.0001ZM50.9099 55.5001H39.0899L37.7399 46.5001H52.2599L50.9099 55.5001ZM35.9999 55.5001L36.2549 57.2251C36.3092 57.5828 36.4908 57.9088 36.7665 58.1431C37.0421 58.3774 37.3932 58.5042 37.7549 58.5001H52.1549C52.5166 58.5042 52.8677 58.3774 53.1433 58.1431C53.4189 57.9088 53.6006 57.5828 53.6549 57.2251L53.9999 55.5001H60.1499L61.3049 66.3451L61.8299 72.345L54.9449 75.105C54.6658 75.2162 54.4265 75.4086 54.258 75.6573C54.0895 75.906 53.9996 76.1996 53.9999 76.5V81C53.9999 81.2167 54.0468 81.4308 54.1374 81.6276C54.228 81.8244 54.3602 81.9992 54.5249 82.14C54.7966 82.3724 55.1424 82.5001 55.4999 82.5H55.7249L62.6249 81.435L63.1049 87H26.8949L27.3749 81.42L34.2749 82.485H34.4999C34.8574 82.4851 35.2032 82.3574 35.4749 82.125C35.6377 81.9858 35.7687 81.8134 35.8593 81.6194C35.9498 81.4253 35.9978 81.2142 35.9999 81V76.5C36.0002 76.1996 35.9103 75.906 35.7418 75.6573C35.5733 75.4086 35.334 75.2162 35.0549 75.105L28.1849 72.3601L29.8649 55.5001H35.9999ZM8.99998 51.0001C8.99998 49.8134 9.35187 48.6534 10.0112 47.6667C10.6704 46.68 11.6075 45.911 12.7039 45.4568C13.8002 45.0027 15.0066 44.8839 16.1705 45.1154C17.3344 45.3469 18.4035 45.9184 19.2426 46.7575C20.0817 47.5966 20.6532 48.6657 20.8847 49.8296C21.1162 50.9934 20.9974 52.1998 20.5432 53.2962C20.0891 54.3926 19.3201 55.3296 18.3334 55.9889C17.3467 56.6482 16.1867 57.0001 15 57.0001C13.4087 57.0001 11.8826 56.3679 10.7573 55.2427C9.63212 54.1175 8.99998 52.5914 8.99998 51.0001ZM2.99999 72.0001C2.99999 68.8175 4.26427 65.7652 6.5147 63.5148C8.76513 61.2644 11.8174 60.0001 15 60.0001C17.2309 59.9999 19.4177 60.6216 21.3149 61.7954C23.212 62.9692 24.7444 64.6486 25.7399 66.6451L25.2899 71.1451L21 69.4801V66.0001H18V70.5001C17.9997 70.8005 18.0896 71.0941 18.2581 71.3428C18.4266 71.5915 18.6659 71.7839 18.945 71.8951L32.9999 77.52V79.245L15.99 76.635L13.335 71.3251L10.665 72.675L13.665 78.675C13.7721 78.8887 13.9287 79.0737 14.1218 79.2146C14.3148 79.3555 14.5388 79.4482 14.775 79.485L24.4049 80.985L23.8799 86.985H2.99999V72.0001ZM86.9998 87H66.1199L65.5948 81L75.2248 79.5C75.461 79.4632 75.685 79.3705 75.878 79.2296C76.0711 79.0887 76.2277 78.9037 76.3348 78.69L79.3348 72.69L76.6648 71.3401L74.0098 76.65L56.9999 79.245V77.52L71.0548 71.8951C71.3339 71.7839 71.5732 71.5915 71.7417 71.3428C71.9102 71.0941 72.0001 70.8005 71.9998 70.5001V66.0001H68.9998V69.4801L64.7399 71.19L64.3349 66.5401C65.3391 64.5746 66.866 62.9241 68.7476 61.7703C70.6292 60.6165 72.7926 60.0039 74.9998 60.0001C78.1824 60.0001 81.2347 61.2644 83.4851 63.5148C85.7355 65.7652 86.9998 68.8175 86.9998 72.0001V87ZM24 24H6V27H24V24ZM6 18H24V21H6V18ZM24 12H6V15H24V12ZM21 5.99974H24V8.99973H21V5.99974ZM18 5.99974H12V8.99973H18V5.99974ZM6 5.99974H8.99999V8.99973H6V5.99974ZM61.4999 0H88.4998C88.8976 0 89.2792 0.158035 89.5605 0.439339C89.8418 0.720643 89.9998 1.10217 89.9998 1.5V31.4999C89.9998 31.8977 89.8418 32.2793 89.5605 32.5606C89.2792 32.8419 88.8976 32.9999 88.4998 32.9999H80.2498L76.1998 38.3999C76.0601 38.5862 75.8789 38.7374 75.6706 38.8415C75.4624 38.9457 75.2327 38.9999 74.9998 38.9999C74.767 38.9999 74.5373 38.9457 74.329 38.8415C74.1207 38.7374 73.9396 38.5862 73.7998 38.3999L69.7498 32.9999H61.4999C61.102 32.9999 60.7205 32.8419 60.4392 32.5606C60.1579 32.2793 59.9999 31.8977 59.9999 31.4999V1.5C59.9999 1.10217 60.1579 0.720643 60.4392 0.439339C60.7205 0.158035 61.102 0 61.4999 0ZM79.4998 29.9999H86.9998V2.99999H62.9999V29.9999H70.4998C70.7327 29.9999 70.9624 30.0541 71.1707 30.1583C71.3789 30.2624 71.5601 30.4136 71.6998 30.5999L74.9998 34.9949L78.2998 30.5999C78.4395 30.4136 78.6207 30.2624 78.829 30.1583C79.0373 30.0541 79.267 29.9999 79.4998 29.9999ZM65.9998 5.99974H83.9998V8.99973H65.9998V5.99974ZM83.9998 12H65.9998V15H83.9998V12ZM65.9998 18H83.9998V21H65.9998V18ZM68.9998 24H65.9998V27H68.9998V24ZM71.9999 24H77.9998V27H71.9999V24ZM83.9998 24H80.9998V27H83.9998V24Z" fill="url(#paint0_linear_1_528)"/>
<defs>
<linearGradient id="paint0_linear_1_528" x1="0" y1="25.8416" x2="89.9998" y2="25.8416" gradientUnits="userSpaceOnUse">
<stop stop-color="#5A4CFC"/>
<stop offset="1" stop-color="#55A3FF"/>
</linearGradient>
</defs>
</svg>
